NotoSansThai-CondensedSemiBold.ufo
<glyph name="hyphen" format="2">
  <advance width="305"/>
  <unicode hex="002D"/>
  <outline>
    <contour>
      <point x="28" y="206" type="line"/>
      <point x="277" y="206" type="line"/>
      <point x="277" y="331" type="line"/>
      <point x="28" y="331" type="line"/>
    </contour>
  </outline>
</glyph>
<glyph name="koKai-thai" format="2">
  <advance width="516"/>
  <unicode hex="0E01"/>
  <note>
uni0E01
</note>
  <anchor x="457" y="0" name="bottom"/>
  <anchor x="443" y="536" name="top"/>
  <outline>
    <contour>
      <point x="57" y="0" type="line"/>
      <point x="187" y="0" type="line"/>
      <point x="187" y="179" type="line" smooth="yes"/>
      <point x="187" y="237"/>
      <point x="203" y="269"/>
      <point x="242" y="272" type="curve"/>
      <point x="251" y="334" type="line"/>
      <point x="183" y="377" type="line"/>
      <point x="185" y="417"/>
      <point x="205" y="448"/>
      <point x="251" y="448" type="curve" smooth="yes"/>
      <point x="301" y="448"/>
      <point x="326" y="415"/>
      <point x="326" y="344" type="curve" smooth="yes"/>
      <point x="326" y="0" type="line"/>
      <point x="457" y="0" type="line"/>
      <point x="457" y="353" type="line" smooth="yes"/>
      <point x="457" y="493"/>
      <point x="381" y="561"/>
      <point x="255" y="561" type="curve" smooth="yes"/>
      <point x="121" y="561"/>
      <point x="49" y="479"/>
      <point x="49" y="384" type="curve" smooth="yes"/>
      <point x="49" y="357" type="line"/>
      <point x="134" y="317" type="line"/>
      <point x="133" y="313" type="line"/>
      <point x="83" y="295"/>
      <point x="57" y="255"/>
      <point x="57" y="171" type="curve" smooth="yes"/>
    </contour>
  </outline>
</glyph>
<glyph name="khoKhai-thai" format="2">
  <advance width="491"/>
  <unicode hex="0E02"/>
  <note>
uni0E02
</note>
  <anchor x="416" y="0" name="bottom"/>
  <anchor x="432" y="536" name="top"/>
  <outline>
    <contour>
      <point x="244" y="-13" type="curve" smooth="yes"/>
      <point x="367" y="-13"/>
      <point x="432" y="54"/>
      <point x="432" y="182" type="curve" smooth="yes"/>
      <point x="432" y="548" type="line"/>
      <point x="303" y="548" type="line"/>
      <point x="303" y="186" type="line" smooth="yes"/>
      <point x="303" y="128"/>
      <point x="285" y="97"/>
      <point x="245" y="97" type="curve" smooth="yes"/>
      <point x="208" y="97"/>
      <point x="188" y="123"/>
      <point x="188" y="193" type="curve" smooth="yes"/>
      <point x="188" y="236" type="line" smooth="yes"/>
      <point x="188" y="286"/>
      <point x="200" y="307"/>
      <point x="214" y="338" type="curve" smooth="yes"/>
      <point x="229" y="371"/>
      <point x="238" y="400"/>
      <point x="238" y="442" type="curve" smooth="yes"/>
      <point x="238" y="511"/>
      <point x="211" y="556"/>
      <point x="138" y="556" type="curve" smooth="yes"/>
      <point x="110" y="556"/>
      <point x="70" y="550"/>
      <point x="39" y="530" type="curve"/>
      <point x="59" y="441" type="line"/>
      <point x="72" y="449"/>
      <point x="83" y="454"/>
      <point x="93" y="454" type="curve" smooth="yes"/>
      <point x="107" y="454"/>
      <point x="117" y="444"/>
      <point x="117" y="420" type="curve" smooth="yes"/>
      <point x="117" y="393"/>
      <point x="105" y="372"/>
      <point x="88" y="343" type="curve" smooth="yes"/>
      <point x="71" y="314"/>
      <point x="59" y="281"/>
      <point x="59" y="225" type="curve" smooth="yes"/>
      <point x="59" y="181" type="line" smooth="yes"/>
      <point x="59" y="54"/>
      <point x="121" y="-13"/>
    </contour>
  </outline>
</glyph>
<glyph name="khoKhuat-thai" format="2">
  <advance width="498"/>
  <unicode hex="0E03"/>
  <anchor x="417" y="0" name="bottom"/>
  <anchor x="439" y="536" name="top"/>
  <outline>
    <contour>
      <point x="249" y="-13" type="curve" smooth="yes"/>
      <point x="373" y="-13"/>
      <point x="439" y="54"/>
      <point x="439" y="182" type="curve" smooth="yes"/>
      <point x="439" y="548" type="line"/>
      <point x="310" y="548" type="line"/>
      <point x="310" y="186" type="line" smooth="yes"/>
      <point x="310" y="129"/>
      <point x="292" y="97"/>
      <point x="249" y="97" type="curve" smooth="yes"/>
      <point x="209" y="97"/>
      <point x="188" y="124"/>
      <point x="188" y="195" type="curve" smooth="yes"/>
      <point x="188" y="234" type="line" smooth="yes"/>
      <point x="188" y="297"/>
      <point x="205" y="316"/>
      <point x="225" y="353" type="curve" smooth="yes"/>
      <point x="248" y="397"/>
      <point x="256" y="421"/>
      <point x="256" y="485" type="curve" smooth="yes"/>
      <point x="256" y="548" type="line"/>
      <point x="188" y="548" type="line"/>
      <point x="174" y="510" type="line"/>
      <point x="165" y="499"/>
      <point x="155" y="495"/>
      <point x="147" y="495" type="curve" smooth="yes"/>
      <point x="131" y="495"/>
      <point x="124" y="511"/>
      <point x="124" y="548" type="curve"/>
      <point x="34" y="548" type="line"/>
      <point x="34" y="514" type="line" smooth="yes"/>
      <point x="34" y="449"/>
      <point x="62" y="413"/>
      <point x="102" y="413" type="curve" smooth="yes"/>
      <point x="113" y="413"/>
      <point x="124" y="418"/>
      <point x="134" y="425" type="curve"/>
      <point x="136" y="424" type="line"/>
      <point x="135" y="406"/>
      <point x="120" y="387"/>
      <point x="109" y="371" type="curve" smooth="yes"/>
      <point x="77" y="325"/>
      <point x="58" y="287"/>
      <point x="58" y="222" type="curve" smooth="yes"/>
      <point x="58" y="184" type="line" smooth="yes"/>
      <point x="58" y="58"/>
      <point x="119" y="-13"/>
    </contour>
  </outline>
</glyph>
<glyph name="khoKhwai-thai" format="2">
  <advance width="532"/>
  <unicode hex="0E04"/>
  <note>
uni0E04
</note>
  <anchor x="473" y="1" name="bottom"/>
  <anchor x="459" y="536" name="top"/>
  <outline>
    <contour>
      <point x="59" y="0" type="line"/>
      <point x="187" y="0" type="line"/>
      <point x="187" y="74" type="line" smooth="yes"/>
      <point x="187" y="141"/>
      <point x="204" y="197"/>
      <point x="280" y="197" type="curve" smooth="yes"/>
      <point x="297" y="197" type="line"/>
      <point x="297" y="303" type="line"/>
      <point x="280" y="303" type="line" smooth="yes"/>
      <point x="233" y="303"/>
      <point x="209" y="291"/>
      <point x="190" y="239" type="curve"/>
      <point x="187" y="240" type="line"/>
      <point x="187" y="331" type="line" smooth="yes"/>
      <point x="187" y="405"/>
      <point x="210" y="448"/>
      <point x="265" y="448" type="curve" smooth="yes"/>
      <point x="322" y="448"/>
      <point x="344" y="405"/>
      <point x="344" y="331" type="curve" smooth="yes"/>
      <point x="344" y="0" type="line"/>
      <point x="473" y="0" type="line"/>
      <point x="473" y="329" type="line" smooth="yes"/>
      <point x="473" y="479"/>
      <point x="412" y="561"/>
      <point x="267" y="561" type="curve" smooth="yes"/>
      <point x="123" y="561"/>
      <point x="59" y="479"/>
      <point x="59" y="329" type="curve" smooth="yes"/>
    </contour>
  </outline>
</glyph>
<glyph name="khoKhon-thai" format="2">
  <advance width="543"/>
  <unicode hex="0E05"/>
  <anchor x="483" y="1" name="bottom"/>
  <anchor x="469" y="536" name="top"/>
  <outline>
    <contour>
      <point x="59" y="0" type="line"/>
      <point x="187" y="0" type="line"/>
      <point x="187" y="74" type="line" smooth="yes"/>
      <point x="187" y="141"/>
      <point x="204" y="197"/>
      <point x="286" y="197" type="curve" smooth="yes"/>
      <point x="304" y="197" type="line"/>
      <point x="304" y="303" type="line"/>
      <point x="286" y="303" type="line" smooth="yes"/>
      <point x="233" y="303"/>
      <point x="209" y="291"/>
      <point x="189" y="239" type="curve"/>
      <point x="187" y="240" type="line"/>
      <point x="187" y="389" type="line" smooth="yes"/>
      <point x="187" y="433"/>
      <point x="199" y="447"/>
      <point x="216" y="447" type="curve" smooth="yes"/>
      <point x="234" y="447"/>
      <point x="245" y="432"/>
      <point x="248" y="396" type="curve"/>
      <point x="294" y="396" type="line"/>
      <point x="295" y="432"/>
      <point x="307" y="447"/>
      <point x="325" y="447" type="curve" smooth="yes"/>
      <point x="343" y="447"/>
      <point x="354" y="433"/>
      <point x="354" y="389" type="curve" smooth="yes"/>
      <point x="354" y="0" type="line"/>
      <point x="484" y="0" type="line"/>
      <point x="484" y="422" type="line" smooth="yes"/>
      <point x="484" y="516"/>
      <point x="438" y="561"/>
      <point x="367" y="561" type="curve" smooth="yes"/>
      <point x="320" y="561"/>
      <point x="284" y="541"/>
      <point x="273" y="499" type="curve"/>
      <point x="269" y="499" type="line"/>
      <point x="258" y="541"/>
      <point x="222" y="561"/>
      <point x="175" y="561" type="curve" smooth="yes"/>
      <point x="105" y="561"/>
      <point x="59" y="516"/>
      <point x="59" y="422" type="curve" smooth="yes"/>
    </contour>
  </outline>
</glyph>
<glyph name="khoRakhang-thai" format="2">
  <advance width="527"/>
  <unicode hex="0E06"/>
  <anchor x="458" y="0" name="bottom"/>
  <anchor x="468" y="536" name="top"/>
  <outline>
    <contour>
      <point x="324" y="-10" type="curve" smooth="yes"/>
      <point x="419" y="-10"/>
      <point x="468" y="60"/>
      <point x="468" y="190" type="curve" smooth="yes"/>
      <point x="468" y="548" type="line"/>
      <point x="338" y="548" type="line"/>
      <point x="338" y="219" type="line" smooth="yes"/>
      <point x="338" y="142"/>
      <point x="315" y="111"/>
      <point x="274" y="111" type="curve" smooth="yes"/>
      <point x="224" y="111"/>
      <point x="193" y="158"/>
      <point x="193" y="230" type="curve" smooth="yes"/>
      <point x="193" y="238" type="line" smooth="yes"/>
      <point x="193" y="293"/>
      <point x="210" y="312"/>
      <point x="232" y="353" type="curve" smooth="yes"/>
      <point x="258" y="402"/>
      <point x="265" y="428"/>
      <point x="265" y="485" type="curve" smooth="yes"/>
      <point x="265" y="548" type="line"/>
      <point x="192" y="548" type="line"/>
      <point x="179" y="510" type="line"/>
      <point x="170" y="499"/>
      <point x="160" y="495"/>
      <point x="151" y="495" type="curve" smooth="yes"/>
      <point x="135" y="495"/>
      <point x="129" y="511"/>
      <point x="129" y="548" type="curve"/>
      <point x="38" y="548" type="line"/>
      <point x="38" y="514" type="line" smooth="yes"/>
      <point x="38" y="449"/>
      <point x="66" y="413"/>
      <point x="106" y="413" type="curve" smooth="yes"/>
      <point x="117" y="413"/>
      <point x="128" y="418"/>
      <point x="138" y="425" type="curve"/>
      <point x="140" y="424" type="line"/>
      <point x="139" y="408"/>
      <point x="127" y="393"/>
      <point x="112" y="371" type="curve" smooth="yes"/>
      <point x="80" y="324"/>
      <point x="63" y="283"/>
      <point x="63" y="215" type="curve" smooth="yes"/>
      <point x="63" y="0" type="line"/>
      <point x="159" y="0" type="line"/>
      <point x="173" y="86" type="line"/>
      <point x="181" y="86" type="line"/>
      <point x="200" y="29"/>
      <point x="248" y="-10"/>
    </contour>
  </outline>
</glyph>
<glyph name="ngoNgu-thai" format="2">
  <advance width="467"/>
  <unicode hex="0E07"/>
  <note>
uni0E07
</note>
  <anchor x="355" y="0" name="bottom"/>
  <anchor x="390" y="536" name="top"/>
  <outline>
    <contour>
      <point x="131" y="0" type="line"/>
      <point x="197" y="0" type="line" smooth="yes"/>
      <point x="285" y="0"/>
      <point x="329" y="24"/>
      <point x="361" y="63" type="curve" smooth="yes"/>
      <point x="400" y="110"/>
      <point x="431" y="192"/>
      <point x="431" y="300" type="curve" smooth="yes"/>
      <point x="431" y="384"/>
      <point x="412" y="454"/>
      <point x="375" y="499" type="curve" smooth="yes"/>
      <point x="345" y="535"/>
      <point x="305" y="556"/>
      <point x="248" y="556" type="curve" smooth="yes"/>
      <point x="233" y="556"/>
      <point x="209" y="554"/>
      <point x="185" y="546" type="curve"/>
      <point x="208" y="438" type="line"/>
      <point x="215" y="442"/>
      <point x="222" y="443"/>
      <point x="230" y="443" type="curve" smooth="yes"/>
      <point x="273" y="443"/>
      <point x="299" y="390"/>
      <point x="299" y="298" type="curve" smooth="yes"/>
      <point x="299" y="244"/>
      <point x="290" y="185"/>
      <point x="271" y="148" type="curve" smooth="yes"/>
      <point x="261" y="127"/>
      <point x="247" y="114"/>
      <point x="232" y="114" type="curve" smooth="yes"/>
      <point x="228" y="114" type="line"/>
      <point x="136" y="548" type="line"/>
      <point x="5" y="548" type="line"/>
    </contour>
  </outline>
</glyph>
<glyph name="choChan-thai" format="2">
  <advance width="461"/>
  <unicode hex="0E08"/>
  <anchor x="369" y="0" name="bottom"/>
  <anchor x="384" y="536" name="top"/>
  <outline>
    <contour>
      <point x="91" y="0" type="line"/>
      <point x="200" y="0" type="line" smooth="yes"/>
      <point x="362" y="0"/>
      <point x="423" y="99"/>
      <point x="423" y="278" type="curve" smooth="yes"/>
      <point x="423" y="466"/>
      <point x="353" y="561"/>
      <point x="197" y="561" type="curve" smooth="yes"/>
      <point x="125" y="561"/>
      <point x="72" y="541"/>
      <point x="36" y="518" type="curve"/>
      <point x="36" y="400" type="line"/>
      <point x="70" y="428"/>
      <point x="114" y="449"/>
      <point x="171" y="449" type="curve" smooth="yes"/>
      <point x="247" y="449"/>
      <point x="291" y="403"/>
      <point x="291" y="275" type="curve" smooth="yes"/>
      <point x="291" y="161"/>
      <point x="261" y="107"/>
      <point x="213" y="107" type="curve" smooth="yes"/>
      <point x="208" y="107" type="line"/>
      <point x="208" y="321" type="line"/>
      <point x="49" y="321" type="line"/>
      <point x="49" y="232" type="line"/>
      <point x="91" y="232" type="line"/>
    </contour>
  </outline>
</glyph>
<glyph name="choChing-thai" format="2">
  <advance width="511"/>
  <unicode hex="0E09"/>
  <anchor x="452" y="0" name="bottom"/>
  <anchor x="444" y="536" name="top"/>
  <outline>
    <contour>
      <point x="199" y="-10" type="curve" smooth="yes"/>
      <point x="269" y="-10"/>
      <point x="312" y="30"/>
      <point x="332" y="81" type="curve"/>
      <point x="339" y="81" type="line"/>
      <point x="354" y="0" type="line"/>
      <point x="452" y="0" type="line"/>
      <point x="452" y="325" type="line" smooth="yes"/>
      <point x="452" y="478"/>
      <point x="393" y="561"/>
      <point x="249" y="561" type="curve" smooth="yes"/>
      <point x="177" y="561"/>
      <point x="111" y="540"/>
      <point x="75" y="518" type="curve"/>
      <point x="75" y="400" type="line"/>
      <point x="111" y="427"/>
      <point x="161" y="449"/>
      <point x="219" y="449" type="curve" smooth="yes"/>
      <point x="283" y="449"/>
      <point x="322" y="418"/>
      <point x="322" y="321" type="curve" smooth="yes"/>
      <point x="322" y="240" type="line" smooth="yes"/>
      <point x="322" y="158"/>
      <point x="292" y="110"/>
      <point x="245" y="110" type="curve" smooth="yes"/>
      <point x="208" y="110"/>
      <point x="187" y="140"/>
      <point x="187" y="205" type="curve" smooth="yes"/>
      <point x="187" y="313" type="line"/>
      <point x="63" y="313" type="line"/>
      <point x="63" y="167" type="line" smooth="yes"/>
      <point x="63" y="43"/>
      <point x="111" y="-10"/>
    </contour>
  </outline>
</glyph>
<glyph name="choChang-thai" format="2">
  <advance width="496"/>
  <unicode hex="0E0A"/>
  <anchor x="419" y="0" name="bottom"/>
  <anchor x="450" y="534" name="top"/>
  <outline>
    <contour>
      <point x="252" y="-13" type="curve" smooth="yes"/>
      <point x="376" y="-13"/>
      <point x="441" y="54"/>
      <point x="441" y="182" type="curve" smooth="yes"/>
      <point x="441" y="291" type="line" smooth="yes"/>
      <point x="441" y="336"/>
      <point x="430" y="377"/>
      <point x="394" y="391" type="curve"/>
      <point x="394" y="395" type="line"/>
      <point x="435" y="414"/>
      <point x="451" y="468"/>
      <point x="451" y="548" type="curve"/>
      <point x="322" y="548" type="line"/>
      <point x="322" y="492"/>
      <point x="314" y="432"/>
      <point x="268" y="432" type="curve" smooth="yes"/>
      <point x="263" y="432" type="line"/>
      <point x="263" y="357" type="line"/>
      <point x="268" y="357" type="line" smooth="yes"/>
      <point x="301" y="357"/>
      <point x="312" y="331"/>
      <point x="312" y="290" type="curve" smooth="yes"/>
      <point x="312" y="186" type="line" smooth="yes"/>
      <point x="312" y="130"/>
      <point x="296" y="97"/>
      <point x="252" y="97" type="curve" smooth="yes"/>
      <point x="211" y="97"/>
      <point x="190" y="124"/>
      <point x="190" y="195" type="curve" smooth="yes"/>
      <point x="190" y="236" type="line" smooth="yes"/>
      <point x="190" y="286"/>
      <point x="200" y="307"/>
      <point x="214" y="338" type="curve" smooth="yes"/>
      <point x="229" y="371"/>
      <point x="238" y="400"/>
      <point x="238" y="442" type="curve" smooth="yes"/>
      <point x="238" y="511"/>
      <point x="211" y="556"/>
      <point x="138" y="556" type="curve" smooth="yes"/>
      <point x="110" y="556"/>
      <point x="70" y="550"/>
      <point x="39" y="530" type="curve"/>
      <point x="59" y="441" type="line"/>
      <point x="72" y="449"/>
      <point x="83" y="454"/>
      <point x="93" y="454" type="curve" smooth="yes"/>
      <point x="107" y="454"/>
      <point x="117" y="444"/>
      <point x="117" y="420" type="curve" smooth="yes"/>
      <point x="117" y="393"/>
      <point x="105" y="372"/>
      <point x="88" y="343" type="curve" smooth="yes"/>
      <point x="71" y="314"/>
      <point x="61" y="280"/>
      <point x="61" y="224" type="curve" smooth="yes"/>
      <point x="61" y="181" type="line" smooth="yes"/>
      <point x="61" y="55"/>
      <point x="126" y="-13"/>
    </contour>
  </outline>
</glyph>
<glyph name="soSo-thai" format="2">
  <advance width="499"/>
  <unicode hex="0E0B"/>
  <note>
uni0E0B
</note>
  <anchor x="422" y="0" name="bottom"/>
  <anchor x="452" y="535" name="top"/>
  <outline>
    <contour>
      <point x="252" y="-13" type="curve" smooth="yes"/>
      <point x="379" y="-13"/>
      <point x="444" y="55"/>
      <point x="444" y="182" type="curve" smooth="yes"/>
      <point x="444" y="286" type="line" smooth="yes"/>
      <point x="444" y="341"/>
      <point x="431" y="378"/>
      <point x="396" y="391" type="curve"/>
      <point x="396" y="395" type="line"/>
      <point x="438" y="416"/>
      <point x="454" y="468"/>
      <point x="454" y="548" type="curve"/>
      <point x="325" y="548" type="line"/>
      <point x="325" y="492"/>
      <point x="319" y="432"/>
      <point x="275" y="432" type="curve" smooth="yes"/>
      <point x="272" y="432" type="line"/>
      <point x="272" y="357" type="line"/>
      <point x="274" y="357" type="line" smooth="yes"/>
      <point x="303" y="357"/>
      <point x="315" y="331"/>
      <point x="315" y="290" type="curve" smooth="yes"/>
      <point x="315" y="186" type="line" smooth="yes"/>
      <point x="315" y="130"/>
      <point x="297" y="97"/>
      <point x="252" y="97" type="curve" smooth="yes"/>
      <point x="210" y="97"/>
      <point x="190" y="123"/>
      <point x="190" y="195" type="curve" smooth="yes"/>
      <point x="190" y="239" type="line" smooth="yes"/>
      <point x="190" y="297"/>
      <point x="206" y="316"/>
      <point x="225" y="353" type="curve" smooth="yes"/>
      <point x="248" y="398"/>
      <point x="251" y="421"/>
      <point x="251" y="485" type="curve" smooth="yes"/>
      <point x="251" y="548" type="line"/>
      <point x="188" y="548" type="line"/>
      <point x="175" y="510" type="line"/>
      <point x="166" y="499"/>
      <point x="156" y="495"/>
      <point x="147" y="495" type="curve" smooth="yes"/>
      <point x="131" y="495"/>
      <point x="125" y="511"/>
      <point x="125" y="548" type="curve"/>
      <point x="34" y="548" type="line"/>
      <point x="34" y="514" type="line" smooth="yes"/>
      <point x="34" y="449"/>
      <point x="62" y="413"/>
      <point x="102" y="413" type="curve" smooth="yes"/>
      <point x="113" y="413"/>
      <point x="124" y="418"/>
      <point x="134" y="425" type="curve"/>
      <point x="136" y="424" type="line"/>
      <point x="135" y="406"/>
      <point x="120" y="387"/>
      <point x="109" y="371" type="curve" smooth="yes"/>
      <point x="77" y="325"/>
      <point x="60" y="287"/>
      <point x="60" y="222" type="curve" smooth="yes"/>
      <point x="60" y="184" type="line" smooth="yes"/>
      <point x="60" y="58"/>
      <point x="123" y="-13"/>
    </contour>
  </outline>
</glyph>
<glyph name="choChoe-thai" format="2">
  <advance width="755"/>
  <unicode hex="0E0C"/>
  <anchor x="679" y="0" name="bottom"/>
  <anchor x="696" y="536" name="top"/>
  <outline>
    <contour>
      <point x="171" y="-10" type="curve" smooth="yes"/>
      <point x="202" y="-10"/>
      <point x="230" y="-4"/>
      <point x="250" y="9" type="curve"/>
      <point x="238" y="94" type="line"/>
      <point x="230" y="90"/>
      <point x="220" y="88"/>
      <point x="211" y="88" type="curve" smooth="yes"/>
      <point x="189" y="88"/>
      <point x="179" y="100"/>
      <point x="179" y="129" type="curve" smooth="yes"/>
      <point x="179" y="195" type="line" smooth="yes"/>
      <point x="179" y="252"/>
      <point x="198" y="273"/>
      <point x="237" y="274" type="curve"/>
      <point x="245" y="336" type="line"/>
      <point x="180" y="380" type="line"/>
      <point x="183" y="425"/>
      <point x="206" y="450"/>
      <point x="248" y="450" type="curve" smooth="yes"/>
      <point x="291" y="450"/>
      <point x="317" y="422"/>
      <point x="317" y="347" type="curve" smooth="yes"/>
      <point x="317" y="0" type="line"/>
      <point x="415" y="0" type="line"/>
      <point x="430" y="86" type="line"/>
      <point x="437" y="86" type="line"/>
      <point x="456" y="29"/>
      <point x="498" y="-10"/>
      <point x="567" y="-10" type="curve" smooth="yes"/>
      <point x="656" y="-10"/>
      <point x="696" y="50"/>
      <point x="696" y="176" type="curve" smooth="yes"/>
      <point x="696" y="548" type="line"/>
      <point x="566" y="548" type="line"/>
      <point x="566" y="205" type="line" smooth="yes"/>
      <point x="566" y="138"/>
      <point x="543" y="111"/>
      <point x="513" y="111" type="curve" smooth="yes"/>
      <point x="473" y="111"/>
      <point x="445" y="165"/>
      <point x="445" y="248" type="curve" smooth="yes"/>
      <point x="445" y="362" type="line" smooth="yes"/>
      <point x="445" y="495"/>
      <point x="373" y="561"/>
      <point x="249" y="561" type="curve" smooth="yes"/>
      <point x="117" y="561"/>
      <point x="46" y="482"/>
      <point x="46" y="384" type="curve" smooth="yes"/>
      <point x="46" y="357" type="line"/>
      <point x="132" y="317" type="line"/>
      <point x="131" y="313" type="line"/>
      <point x="81" y="295"/>
      <point x="53" y="263"/>
      <point x="53" y="184" type="curve" smooth="yes"/>
      <point x="53" y="114" type="line" smooth="yes"/>
      <point x="53" y="28"/>
      <point x="97" y="-10"/>
    </contour>
  </outline>
</glyph>
<glyph name="yoYing-thai" format="2">
  <advance width="762"/>
  <unicode hex="0E0D"/>
  <anchor x="669" y="-169" name="bottom"/>
  <anchor x="697" y="536" name="top"/>
  <outline>
    <contour>
      <point x="482" y="-192" type="curve" smooth="yes"/>
      <point x="623" y="-192"/>
      <point x="697" y="-109"/>
      <point x="697" y="64" type="curve" smooth="yes"/>
      <point x="697" y="548" type="line"/>
      <point x="567" y="548" type="line"/>
      <point x="567" y="263" type="line" smooth="yes"/>
      <point x="567" y="180"/>
      <point x="540" y="126"/>
      <point x="497" y="126" type="curve" smooth="yes"/>
      <point x="468" y="126"/>
      <point x="444" y="153"/>
      <point x="444" y="220" type="curve" smooth="yes"/>
      <point x="444" y="362" type="line" smooth="yes"/>
      <point x="444" y="496"/>
      <point x="372" y="561"/>
      <point x="249" y="561" type="curve" smooth="yes"/>
      <point x="117" y="561"/>
      <point x="46" y="483"/>
      <point x="46" y="384" type="curve" smooth="yes"/>
      <point x="46" y="357" type="line"/>
      <point x="132" y="317" type="line"/>
      <point x="131" y="313" type="line"/>
      <point x="81" y="295"/>
      <point x="53" y="263"/>
      <point x="53" y="184" type="curve" smooth="yes"/>
      <point x="53" y="114" type="line" smooth="yes"/>
      <point x="53" y="28"/>
      <point x="97" y="-10"/>
      <point x="171" y="-10" type="curve" smooth="yes"/>
      <point x="202" y="-10"/>
      <point x="230" y="-4"/>
      <point x="250" y="9" type="curve"/>
      <point x="238" y="94" type="line"/>
      <point x="230" y="90"/>
      <point x="220" y="88"/>
      <point x="211" y="88" type="curve" smooth="yes"/>
      <point x="189" y="88"/>
      <point x="179" y="100"/>
      <point x="179" y="129" type="curve" smooth="yes"/>
      <point x="179" y="195" type="line" smooth="yes"/>
      <point x="179" y="252"/>
      <point x="198" y="273"/>
      <point x="237" y="274" type="curve"/>
      <point x="245" y="336" type="line"/>
      <point x="180" y="380" type="line"/>
      <point x="183" y="426"/>
      <point x="209" y="450"/>
      <point x="247" y="450" type="curve" smooth="yes"/>
      <point x="287" y="450"/>
      <point x="316" y="425"/>
      <point x="316" y="351" type="curve" smooth="yes"/>
      <point x="316" y="181" type="line" smooth="yes"/>
      <point x="316" y="58"/>
      <point x="369" y="6"/>
      <point x="450" y="6" type="curve" smooth="yes"/>
      <point x="510" y="6"/>
      <point x="545" y="37"/>
      <point x="565" y="75" type="curve"/>
      <point x="571" y="75" type="line"/>
      <point x="571" y="46" type="line" smooth="yes"/>
      <point x="571" y="-43"/>
      <point x="532" y="-79"/>
      <point x="462" y="-79" type="curve" smooth="yes"/>
      <point x="412" y="-79"/>
      <point x="367" y="-61"/>
      <point x="342" y="-38" type="curve"/>
      <point x="342" y="-158" type="line"/>
      <point x="383" y="-181"/>
      <point x="434" y="-192"/>
    </contour>
  </outline>
</glyph>
<glyph name="doChada-thai" format="2">
  <advance width="525"/>
  <unicode hex="0E0E"/>
  <anchor x="466" y="-193" name="bottom"/>
  <anchor x="442" y="536" name="top"/>
  <outline>
    <contour>
      <point x="75" y="-210" type="line"/>
      <point x="196" y="-210" type="line"/>
      <point x="196" y="-201" type="line" smooth="yes"/>
      <point x="196" y="-171"/>
      <point x="210" y="-149"/>
      <point x="246" y="-149" type="curve" smooth="yes"/>
      <point x="280" y="-149"/>
      <point x="329" y="-174"/>
      <point x="351" y="-210" type="curve"/>
      <point x="466" y="-210" type="line"/>
      <point x="466" y="353" type="line" smooth="yes"/>
      <point x="466" y="493"/>
      <point x="390" y="561"/>
      <point x="262" y="561" type="curve" smooth="yes"/>
      <point x="126" y="561"/>
      <point x="57" y="479"/>
      <point x="57" y="384" type="curve" smooth="yes"/>
      <point x="57" y="357" type="line"/>
      <point x="144" y="317" type="line"/>
      <point x="143" y="313" type="line"/>
      <point x="100" y="299"/>
      <point x="79" y="265"/>
      <point x="79" y="197" type="curve" smooth="yes"/>
      <point x="79" y="126" type="line" smooth="yes"/>
      <point x="79" y="102"/>
      <point x="72" y="90"/>
      <point x="54" y="90" type="curve" smooth="yes"/>
      <point x="47" y="90"/>
      <point x="41" y="92"/>
      <point x="34" y="95" type="curve"/>
      <point x="22" y="15" type="line"/>
      <point x="41" y="3"/>
      <point x="67" y="-5"/>
      <point x="99" y="-5" type="curve" smooth="yes"/>
      <point x="161" y="-5"/>
      <point x="206" y="26"/>
      <point x="206" y="111" type="curve" smooth="yes"/>
      <point x="206" y="192" type="line" smooth="yes"/>
      <point x="206" y="249"/>
      <point x="219" y="274"/>
      <point x="248" y="274" type="curve"/>
      <point x="256" y="336" type="line"/>
      <point x="191" y="377" type="line"/>
      <point x="193" y="417"/>
      <point x="213" y="448"/>
      <point x="260" y="448" type="curve" smooth="yes"/>
      <point x="310" y="448"/>
      <point x="335" y="415"/>
      <point x="335" y="344" type="curve" smooth="yes"/>
      <point x="335" y="-129" type="line"/>
      <point x="360" y="-119" type="line"/>
      <point x="337" y="-77"/>
      <point x="276" y="-40"/>
      <point x="207" y="-40" type="curve" smooth="yes"/>
      <point x="125" y="-40"/>
      <point x="75" y="-89"/>
      <point x="75" y="-193" type="curve" smooth="yes"/>
    </contour>
  </outline>
</glyph>
<glyph name="toPatak-thai" format="2">
  <advance width="525"/>
  <unicode hex="0E0F"/>
  <anchor x="466" y="-193" name="bottom"/>
  <anchor x="442" y="536" name="top"/>
  <outline>
    <contour>
      <point x="50" y="-210" type="line"/>
      <point x="152" y="-210" type="line"/>
      <point x="152" y="-205" type="line" smooth="yes"/>
      <point x="152" y="-182"/>
      <point x="158" y="-154"/>
      <point x="183" y="-154" type="curve" smooth="yes"/>
      <point x="207" y="-154"/>
      <point x="224" y="-181"/>
      <point x="233" y="-210" type="curve"/>
      <point x="263" y="-210" type="line"/>
      <point x="303" y="-158" type="line"/>
      <point x="357" y="-210" type="line"/>
      <point x="466" y="-210" type="line"/>
      <point x="466" y="353" type="line" smooth="yes"/>
      <point x="466" y="493"/>
      <point x="390" y="561"/>
      <point x="262" y="561" type="curve" smooth="yes"/>
      <point x="126" y="561"/>
      <point x="57" y="479"/>
      <point x="57" y="384" type="curve" smooth="yes"/>
      <point x="57" y="357" type="line"/>
      <point x="144" y="317" type="line"/>
      <point x="143" y="313" type="line"/>
      <point x="100" y="299"/>
      <point x="79" y="265"/>
      <point x="79" y="197" type="curve" smooth="yes"/>
      <point x="79" y="126" type="line" smooth="yes"/>
      <point x="79" y="102"/>
      <point x="72" y="90"/>
      <point x="54" y="90" type="curve" smooth="yes"/>
      <point x="47" y="90"/>
      <point x="41" y="92"/>
      <point x="34" y="95" type="curve"/>
      <point x="22" y="15" type="line"/>
      <point x="41" y="3"/>
      <point x="67" y="-5"/>
      <point x="99" y="-5" type="curve" smooth="yes"/>
      <point x="161" y="-5"/>
      <point x="206" y="26"/>
      <point x="206" y="111" type="curve" smooth="yes"/>
      <point x="206" y="192" type="line" smooth="yes"/>
      <point x="206" y="249"/>
      <point x="219" y="274"/>
      <point x="248" y="274" type="curve"/>
      <point x="256" y="336" type="line"/>
      <point x="191" y="377" type="line"/>
      <point x="193" y="417"/>
      <point x="213" y="448"/>
      <point x="260" y="448" type="curve" smooth="yes"/>
      <point x="310" y="448"/>
      <point x="335" y="415"/>
      <point x="335" y="344" type="curve" smooth="yes"/>
      <point x="335" y="-121" type="line"/>
      <point x="352" y="-116" type="line"/>
      <point x="292" y="-58" type="line"/>
      <point x="247" y="-111" type="line"/>
      <point x="227" y="-70"/>
      <point x="196" y="-48"/>
      <point x="153" y="-48" type="curve" smooth="yes"/>
      <point x="96" y="-48"/>
      <point x="50" y="-88"/>
      <point x="50" y="-177" type="curve" smooth="yes"/>
    </contour>
  </outline>
</glyph>
<glyph name="thoThan-thai" format="2">
  <advance width="470"/>
  <unicode hex="0E10"/>
  <anchor x="421" y="-193" name="bottom"/>
  <anchor x="395" y="536" name="top"/>
  <outline>
    <contour>
      <point x="93" y="0" type="line"/>
      <point x="202" y="0" type="line" smooth="yes"/>
      <point x="361" y="0"/>
      <point x="425" y="99"/>
      <point x="425" y="272" type="curve" smooth="yes"/>
      <point x="425" y="385"/>
      <point x="393" y="453"/>
      <point x="347" y="480" type="curve"/>
      <point x="329" y="540"/>
      <point x="273" y="561"/>
      <point x="200" y="561" type="curve" smooth="yes"/>
      <point x="127" y="561"/>
      <point x="74" y="541"/>
      <point x="38" y="518" type="curve"/>
      <point x="38" y="400" type="line"/>
      <point x="72" y="428"/>
      <point x="116" y="449"/>
      <point x="174" y="449" type="curve" smooth="yes"/>
      <point x="249" y="449"/>
      <point x="293" y="403"/>
      <point x="293" y="275" type="curve" smooth="yes"/>
      <point x="293" y="161"/>
      <point x="263" y="107"/>
      <point x="214" y="107" type="curve" smooth="yes"/>
      <point x="210" y="107" type="line"/>
      <point x="210" y="321" type="line"/>
      <point x="51" y="321" type="line"/>
      <point x="51" y="232" type="line"/>
      <point x="93" y="232" type="line"/>
    </contour>
    <contour>
      <point x="37" y="-210" type="line"/>
      <point x="131" y="-210" type="line"/>
      <point x="131" y="-205" type="line" smooth="yes"/>
      <point x="131" y="-182"/>
      <point x="136" y="-154"/>
      <point x="160" y="-154" type="curve" smooth="yes"/>
      <point x="184" y="-154"/>
      <point x="200" y="-181"/>
      <point x="210" y="-210" type="curve"/>
      <point x="233" y="-210" type="line"/>
      <point x="265" y="-158" type="line"/>
      <point x="311" y="-210" type="line"/>
      <point x="421" y="-210" type="line"/>
      <point x="421" y="-35" type="line"/>
      <point x="314" y="-35" type="line"/>
      <point x="314" y="-124" type="line"/>
      <point x="324" y="-119" type="line"/>
      <point x="264" y="-60" type="line"/>
      <point x="224" y="-114" type="line"/>
      <point x="200" y="-75"/>
      <point x="176" y="-50"/>
      <point x="132" y="-50" type="curve" smooth="yes"/>
      <point x="77" y="-50"/>
      <point x="37" y="-91"/>
      <point x="37" y="-180" type="curve" smooth="yes"/>
    </contour>
    <contour>
      <point x="347" y="444" type="line"/>
      <point x="423" y="467"/>
      <point x="449" y="522"/>
      <point x="449" y="584" type="curve"/>
      <point x="337" y="584" type="line"/>
      <point x="336" y="547"/>
      <point x="315" y="524"/>
      <point x="276" y="510" type="curve"/>
    </contour>
  </outline>
</glyph>
<glyph name="thoNangmontho-thai" format="2">
  <advance width="533"/>
  <unicode hex="0E11"/>
  <anchor x="475" y="0" name="bottom"/>
  <anchor x="455" y="536" name="top"/>
  <outline>
    <contour>
      <point x="68" y="0" type="line"/>
      <point x="199" y="0" type="line"/>
      <point x="199" y="212" type="line" smooth="yes"/>
      <point x="199" y="285"/>
      <point x="209" y="315"/>
      <point x="233" y="361" type="curve" smooth="yes"/>
      <point x="263" y="419"/>
      <point x="283" y="442"/>
      <point x="308" y="442" type="curve" smooth="yes"/>
      <point x="333" y="442"/>
      <point x="344" y="418"/>
      <point x="344" y="368" type="curve" smooth="yes"/>
      <point x="344" y="0" type="line"/>
      <point x="474" y="0" type="line"/>
      <point x="474" y="423" type="line" smooth="yes"/>
      <point x="474" y="505"/>
      <point x="437" y="558"/>
      <point x="370" y="558" type="curve" smooth="yes"/>
      <point x="314" y="558"/>
      <point x="274" y="529"/>
      <point x="249" y="473" type="curve"/>
      <point x="245" y="473" type="line"/>
      <point x="245" y="548" type="line"/>
      <point x="183" y="548" type="line"/>
      <point x="170" y="510" type="line"/>
      <point x="161" y="498"/>
      <point x="152" y="495"/>
      <point x="144" y="495" type="curve" smooth="yes"/>
      <point x="128" y="495"/>
      <point x="121" y="509"/>
      <point x="121" y="548" type="curve"/>
      <point x="34" y="548" type="line"/>
      <point x="34" y="514" type="line" smooth="yes"/>
      <point x="34" y="449"/>
      <point x="62" y="413"/>
      <point x="101" y="413" type="curve" smooth="yes"/>
      <point x="113" y="413"/>
      <point x="123" y="418"/>
      <point x="134" y="425" type="curve"/>
      <point x="136" y="424" type="line"/>
      <point x="135" y="408"/>
      <point x="131" y="401"/>
      <point x="107" y="366" type="curve" smooth="yes"/>
      <point x="73" y="317"/>
      <point x="68" y="278"/>
      <point x="68" y="211" type="curve" smooth="yes"/>
    </contour>
  </outline>
</glyph>
<glyph name="thoPhuthao-thai" format="2">
  <advance width="768"/>
  <unicode hex="0E12"/>
  <anchor x="700" y="0" name="bottom"/>
  <anchor x="717" y="536" name="top"/>
  <outline>
    <contour>
      <point x="225" y="-10" type="curve" smooth="yes"/>
      <point x="250" y="-10"/>
      <point x="269" y="-6"/>
      <point x="287" y="3" type="curve"/>
      <point x="274" y="104" type="line"/>
      <point x="266" y="100"/>
      <point x="257" y="97"/>
      <point x="246" y="97" type="curve" smooth="yes"/>
      <point x="189" y="97"/>
      <point x="174" y="161"/>
      <point x="174" y="283" type="curve" smooth="yes"/>
      <point x="174" y="406"/>
      <point x="187" y="446"/>
      <point x="211" y="446" type="curve" smooth="yes"/>
      <point x="223" y="446"/>
      <point x="235" y="435"/>
      <point x="238" y="396" type="curve"/>
      <point x="285" y="396" type="line"/>
      <point x="288" y="432"/>
      <point x="298" y="446"/>
      <point x="313" y="446" type="curve" smooth="yes"/>
      <point x="328" y="446"/>
      <point x="338" y="434"/>
      <point x="338" y="390" type="curve" smooth="yes"/>
      <point x="338" y="0" type="line"/>
      <point x="437" y="0" type="line"/>
      <point x="451" y="86" type="line"/>
      <point x="458" y="86" type="line"/>
      <point x="478" y="32"/>
      <point x="518" y="-10"/>
      <point x="589" y="-10" type="curve" smooth="yes"/>
      <point x="677" y="-10"/>
      <point x="717" y="50"/>
      <point x="717" y="176" type="curve" smooth="yes"/>
      <point x="717" y="548" type="line"/>
      <point x="587" y="548" type="line"/>
      <point x="587" y="205" type="line" smooth="yes"/>
      <point x="587" y="138"/>
      <point x="564" y="111"/>
      <point x="535" y="111" type="curve" smooth="yes"/>
      <point x="494" y="111"/>
      <point x="466" y="165"/>
      <point x="466" y="248" type="curve" smooth="yes"/>
      <point x="466" y="414" type="line" smooth="yes"/>
      <point x="466" y="508"/>
      <point x="429" y="558"/>
      <point x="359" y="558" type="curve" smooth="yes"/>
      <point x="322" y="558"/>
      <point x="282" y="544"/>
      <point x="266" y="497" type="curve"/>
      <point x="263" y="497" type="line"/>
      <point x="245" y="543"/>
      <point x="216" y="558"/>
      <point x="179" y="558" type="curve" smooth="yes"/>
      <point x="91" y="558"/>
      <point x="44" y="478"/>
      <point x="44" y="281" type="curve" smooth="yes"/>
      <point x="44" y="105"/>
      <point x="85" y="-10"/>
    </contour>
  </outline>
</glyph>
<glyph name="noNen-thai" format="2">
  <advance width="762"/>
  <unicode hex="0E13"/>
  <anchor x="697" y="0" name="bottom"/>
  <anchor x="697" y="536" name="top"/>
  <outline>
    <contour>
      <point x="171" y="-10" type="curve" smooth="yes"/>
      <point x="202" y="-10"/>
      <point x="230" y="-4"/>
      <point x="250" y="9" type="curve"/>
      <point x="238" y="94" type="line"/>
      <point x="230" y="90"/>
      <point x="220" y="88"/>
      <point x="211" y="88" type="curve" smooth="yes"/>
      <point x="189" y="88"/>
      <point x="179" y="100"/>
      <point x="179" y="129" type="curve" smooth="yes"/>
      <point x="179" y="195" type="line" smooth="yes"/>
      <point x="179" y="252"/>
      <point x="198" y="273"/>
      <point x="237" y="274" type="curve"/>
      <point x="245" y="336" type="line"/>
      <point x="180" y="380" type="line"/>
      <point x="183" y="426"/>
      <point x="209" y="450"/>
      <point x="247" y="450" type="curve" smooth="yes"/>
      <point x="287" y="450"/>
      <point x="316" y="425"/>
      <point x="316" y="351" type="curve" smooth="yes"/>
      <point x="316" y="171" type="line" smooth="yes"/>
      <point x="316" y="45"/>
      <point x="358" y="-10"/>
      <point x="448" y="-10" type="curve" smooth="yes"/>
      <point x="513" y="-10"/>
      <point x="556" y="29"/>
      <point x="574" y="86" type="curve"/>
      <point x="582" y="86" type="line"/>
      <point x="597" y="0" type="line"/>
      <point x="697" y="0" type="line"/>
      <point x="697" y="548" type="line"/>
      <point x="567" y="548" type="line"/>
      <point x="567" y="248" type="line" smooth="yes"/>
      <point x="567" y="165"/>
      <point x="539" y="111"/>
      <point x="497" y="111" type="curve" smooth="yes"/>
      <point x="467" y="111"/>
      <point x="444" y="138"/>
      <point x="444" y="205" type="curve" smooth="yes"/>
      <point x="444" y="362" type="line" smooth="yes"/>
      <point x="444" y="496"/>
      <point x="372" y="561"/>
      <point x="249" y="561" type="curve" smooth="yes"/>
      <point x="117" y="561"/>
      <point x="46" y="483"/>
      <point x="46" y="384" type="curve" smooth="yes"/>
      <point x="46" y="357" type="line"/>
      <point x="132" y="317" type="line"/>
      <point x="131" y="313" type="line"/>
      <point x="81" y="295"/>
      <point x="53" y="263"/>
      <point x="53" y="184" type="curve" smooth="yes"/>
      <point x="53" y="114" type="line" smooth="yes"/>
      <point x="53" y="28"/>
      <point x="97" y="-10"/>
    </contour>
  </outline>
</glyph>
<glyph name="doDek-thai" format="2">
  <advance width="520"/>
  <unicode hex="0E14"/>
  <anchor x="460" y="0" name="bottom"/>
  <anchor x="441" y="536" name="top"/>
  <outline>
    <contour>
      <point x="217" y="-10" type="curve" smooth="yes"/>
      <point x="239" y="-10"/>
      <point x="266" y="-7"/>
      <point x="283" y="3" type="curve"/>
      <point x="271" y="108" type="line"/>
      <point x="262" y="105"/>
      <point x="251" y="102"/>
      <point x="241" y="102" type="curve" smooth="yes"/>
      <point x="191" y="102"/>
      <point x="173" y="171"/>
      <point x="173" y="269" type="curve" smooth="yes"/>
      <point x="173" y="413"/>
      <point x="206" y="448"/>
      <point x="259" y="448" type="curve" smooth="yes"/>
      <point x="309" y="448"/>
      <point x="330" y="412"/>
      <point x="330" y="347" type="curve" smooth="yes"/>
      <point x="330" y="0" type="line"/>
      <point x="461" y="0" type="line"/>
      <point x="461" y="358" type="line" smooth="yes"/>
      <point x="461" y="481"/>
      <point x="406" y="561"/>
      <point x="259" y="561" type="curve" smooth="yes"/>
      <point x="131" y="561"/>
      <point x="40" y="499"/>
      <point x="40" y="267" type="curve" smooth="yes"/>
      <point x="40" y="106"/>
      <point x="86" y="-10"/>
    </contour>
  </outline>
</glyph>
<glyph name="toTao-thai" format="2">
  <advance width="536"/>
  <unicode hex="0E15"/>
  <note>
uni0E15
</note>
  <anchor x="477" y="0" name="bottom"/>
  <anchor x="457" y="536" name="top"/>
  <outline>
    <contour>
      <point x="229" y="-10" type="curve" smooth="yes"/>
      <point x="253" y="-10"/>
      <point x="272" y="-6"/>
      <point x="290" y="3" type="curve"/>
      <point x="277" y="104" type="line"/>
      <point x="269" y="100"/>
      <point x="260" y="97"/>
      <point x="249" y="97" type="curve" smooth="yes"/>
      <point x="192" y="97"/>
      <point x="177" y="164"/>
      <point x="177" y="281" type="curve" smooth="yes"/>
      <point x="177" y="400"/>
      <point x="189" y="446"/>
      <point x="213" y="446" type="curve" smooth="yes"/>
      <point x="228" y="446"/>
      <point x="239" y="435"/>
      <point x="243" y="396" type="curve"/>
      <point x="291" y="396" type="line"/>
      <point x="294" y="432"/>
      <point x="303" y="446"/>
      <point x="321" y="446" type="curve" smooth="yes"/>
      <point x="336" y="446"/>
      <point x="347" y="433"/>
      <point x="347" y="390" type="curve" smooth="yes"/>
      <point x="347" y="0" type="line"/>
      <point x="477" y="0" type="line"/>
      <point x="477" y="414" type="line" smooth="yes"/>
      <point x="477" y="508"/>
      <point x="440" y="558"/>
      <point x="365" y="558" type="curve" smooth="yes"/>
      <point x="327" y="558"/>
      <point x="287" y="544"/>
      <point x="271" y="497" type="curve"/>
      <point x="268" y="497" type="line"/>
      <point x="249" y="543"/>
      <point x="221" y="558"/>
      <point x="183" y="558" type="curve" smooth="yes"/>
      <point x="90" y="558"/>
      <point x="44" y="476"/>
      <point x="44" y="282" type="curve" smooth="yes"/>
      <point x="44" y="108"/>
      <point x="85" y="-10"/>
    </contour>
  </outline>
</glyph>
<glyph name="thoThung-thai" format="2">
  <advance width="513"/>
  <unicode hex="0E16"/>
  <anchor x="454" y="0" name="bottom"/>
  <anchor x="440" y="536" name="top"/>
  <outline>
    <contour>
      <point x="171" y="-10" type="curve" smooth="yes"/>
      <point x="202" y="-10"/>
      <point x="230" y="-4"/>
      <point x="250" y="9" type="curve"/>
      <point x="238" y="94" type="line"/>
      <point x="230" y="90"/>
      <point x="220" y="88"/>
      <point x="211" y="88" type="curve" smooth="yes"/>
      <point x="189" y="88"/>
      <point x="179" y="100"/>
      <point x="179" y="129" type="curve" smooth="yes"/>
      <point x="179" y="200" type="line" smooth="yes"/>
      <point x="179" y="256"/>
      <point x="198" y="273"/>
      <point x="237" y="274" type="curve"/>
      <point x="245" y="335" type="line"/>
      <point x="180" y="377" type="line"/>
      <point x="182" y="417"/>
      <point x="202" y="448"/>
      <point x="249" y="448" type="curve" smooth="yes"/>
      <point x="298" y="448"/>
      <point x="324" y="415"/>
      <point x="324" y="344" type="curve" smooth="yes"/>
      <point x="324" y="0" type="line"/>
      <point x="454" y="0" type="line"/>
      <point x="454" y="353" type="line" smooth="yes"/>
      <point x="454" y="493"/>
      <point x="379" y="561"/>
      <point x="252" y="561" type="curve" smooth="yes"/>
      <point x="118" y="561"/>
      <point x="46" y="479"/>
      <point x="46" y="384" type="curve" smooth="yes"/>
      <point x="46" y="357" type="line"/>
      <point x="132" y="317" type="line"/>
      <point x="131" y="313" type="line"/>
      <point x="81" y="295"/>
      <point x="53" y="260"/>
      <point x="53" y="181" type="curve" smooth="yes"/>
      <point x="53" y="114" type="line" smooth="yes"/>
      <point x="53" y="28"/>
      <point x="97" y="-10"/>
    </contour>
  </outline>
</glyph>
<glyph name="thoThahan-thai" format="2">
  <advance width="530"/>
  <unicode hex="0E17"/>
  <anchor x="471" y="0" name="bottom"/>
  <anchor x="451" y="536" name="top"/>
  <outline>
    <contour>
      <point x="64" y="0" type="line"/>
      <point x="194" y="0" type="line"/>
      <point x="194" y="271" type="line" smooth="yes"/>
      <point x="194" y="377"/>
      <point x="224" y="437"/>
      <point x="275" y="437" type="curve" smooth="yes"/>
      <point x="318" y="437"/>
      <point x="341" y="405"/>
      <point x="341" y="329" type="curve" smooth="yes"/>
      <point x="341" y="0" type="line"/>
      <point x="471" y="0" type="line"/>
      <point x="471" y="355" type="line" smooth="yes"/>
      <point x="471" y="492"/>
      <point x="421" y="558"/>
      <point x="318" y="558" type="curve" smooth="yes"/>
      <point x="246" y="558"/>
      <point x="202" y="518"/>
      <point x="184" y="462" type="curve"/>
      <point x="177" y="462" type="line"/>
      <point x="160" y="548" type="line"/>
      <point x="64" y="548" type="line"/>
    </contour>
  </outline>
</glyph>
<glyph name="thoThong-thai" format="2">
  <advance width="458"/>
  <unicode hex="0E18"/>
  <anchor x="379" y="0" name="bottom"/>
  <anchor x="408" y="536" name="top"/>
  <outline>
    <contour>
      <point x="235" y="-13" type="curve" smooth="yes"/>
      <point x="381" y="-13"/>
      <point x="425" y="64"/>
      <point x="425" y="168" type="curve" smooth="yes"/>
      <point x="425" y="283"/>
      <point x="377" y="322"/>
      <point x="285" y="356" type="curve" smooth="yes"/>
      <point x="217" y="381"/>
      <point x="171" y="386"/>
      <point x="171" y="420" type="curve" smooth="yes"/>
      <point x="171" y="448"/>
      <point x="197" y="457"/>
      <point x="228" y="457" type="curve" smooth="yes"/>
      <point x="290" y="457"/>
      <point x="358" y="436"/>
      <point x="390" y="419" type="curve"/>
      <point x="390" y="528" type="line"/>
      <point x="362" y="543"/>
      <point x="307" y="561"/>
      <point x="234" y="561" type="curve" smooth="yes"/>
      <point x="119" y="561"/>
      <point x="41" y="518"/>
      <point x="41" y="411" type="curve" smooth="yes"/>
      <point x="41" y="322"/>
      <point x="93" y="295"/>
      <point x="178" y="265" type="curve" smooth="yes"/>
      <point x="255" y="238"/>
      <point x="301" y="231"/>
      <point x="301" y="165" type="curve" smooth="yes"/>
      <point x="301" y="104"/>
      <point x="270" y="87"/>
      <point x="228" y="87" type="curve" smooth="yes"/>
      <point x="205" y="87"/>
      <point x="182" y="94"/>
      <point x="165" y="101" type="curve"/>
      <point x="165" y="243" type="line"/>
      <point x="55" y="243" type="line"/>
      <point x="55" y="25" type="line"/>
      <point x="105" y="5"/>
      <point x="169" y="-13"/>
    </contour>
  </outline>
</glyph>
<glyph name="noNu-thai" format="2">
  <advance width="531"/>
  <unicode hex="0E19"/>
  <note>
uni0E19
</note>
  <anchor x="466" y="0" name="bottom"/>
  <anchor x="466" y="536" name="top"/>
  <outline>
    <contour>
      <point x="209" y="-10" type="curve" smooth="yes"/>
      <point x="286" y="-10"/>
      <point x="327" y="30"/>
      <point x="345" y="84" type="curve"/>
      <point x="353" y="84" type="line"/>
      <point x="368" y="0" type="line"/>
      <point x="466" y="0" type="line"/>
      <point x="466" y="548" type="line"/>
      <point x="336" y="548" type="line"/>
      <point x="336" y="277" type="line" smooth="yes"/>
      <point x="336" y="165"/>
      <point x="306" y="111"/>
      <point x="253" y="111" type="curve" smooth="yes"/>
      <point x="212" y="111"/>
      <point x="189" y="144"/>
      <point x="189" y="219" type="curve" smooth="yes"/>
      <point x="189" y="548" type="line"/>
      <point x="59" y="548" type="line"/>
      <point x="59" y="196" type="line" smooth="yes"/>
      <point x="59" y="60"/>
      <point x="110" y="-10"/>
    </contour>
  </outline>
</glyph>
<glyph name="boBaimai-thai" format="2">
  <advance width="522"/>
  <unicode hex="0E1A"/>
  <note>
uni0E1A
</note>
  <anchor x="441" y="0" name="bottom"/>
  <anchor x="463" y="536" name="top"/>
  <outline>
    <contour>
      <point x="261" y="-13" type="curve" smooth="yes"/>
      <point x="402" y="-13"/>
      <point x="463" y="69"/>
      <point x="463" y="219" type="curve" smooth="yes"/>
      <point x="463" y="548" type="line"/>
      <point x="333" y="548" type="line"/>
      <point x="333" y="212" type="line" smooth="yes"/>
      <point x="333" y="138"/>
      <point x="311" y="100"/>
      <point x="261" y="100" type="curve" smooth="yes"/>
      <point x="211" y="100"/>
      <point x="189" y="138"/>
      <point x="189" y="212" type="curve" smooth="yes"/>
      <point x="189" y="548" type="line"/>
      <point x="59" y="548" type="line"/>
      <point x="59" y="219" type="line" smooth="yes"/>
      <point x="59" y="69"/>
      <point x="119" y="-13"/>
    </contour>
  </outline>
</glyph>
<glyph name="foFa-thai" format="2">
  <advance width="559"/>
  <unicode hex="0E1D"/>
  <anchor x="494" y="0" name="bottom"/>
  <anchor x="340" y="536" name="top"/>
  <outline>
    <contour>
      <point x="62" y="0" type="line"/>
      <point x="187" y="0" type="line"/>
      <point x="276" y="225" type="line"/>
      <point x="280" y="225" type="line"/>
      <point x="369" y="0" type="line"/>
      <point x="494" y="0" type="line"/>
      <point x="494" y="745" type="line"/>
      <point x="373" y="745" type="line"/>
      <point x="373" y="309" type="line" smooth="yes"/>
      <point x="373" y="275"/>
      <point x="375" y="231"/>
      <point x="381" y="163" type="curve"/>
      <point x="377" y="163" type="line"/>
      <point x="359" y="212"/>
      <point x="348" y="240"/>
      <point x="328" y="290" type="curve" smooth="yes"/>
      <point x="300" y="361" type="line"/>
      <point x="255" y="361" type="line"/>
      <point x="228" y="290" type="line" smooth="yes"/>
      <point x="216" y="259"/>
      <point x="201" y="226"/>
      <point x="179" y="163" type="curve"/>
      <point x="175" y="163" type="line"/>
      <point x="181" y="231"/>
      <point x="183" y="275"/>
      <point x="183" y="309" type="curve" smooth="yes"/>
      <point x="183" y="412" type="line" smooth="yes"/>
      <point x="183" y="438"/>
      <point x="189" y="452"/>
      <point x="208" y="452" type="curve" smooth="yes"/>
      <point x="214" y="452"/>
      <point x="222" y="451"/>
      <point x="230" y="448" type="curve"/>
      <point x="248" y="541" type="line"/>
      <point x="233" y="550"/>
      <point x="208" y="558"/>
      <point x="174" y="558" type="curve" smooth="yes"/>
      <point x="107" y="558"/>
      <point x="62" y="529"/>
      <point x="62" y="430" type="curve" smooth="yes"/>
    </contour>
  </outline>
</glyph>
<glyph name="phoPhan-thai" format="2">
  <advance width="596"/>
  <unicode hex="0E1E"/>
  <note>
uni0E1E
</note>
  <anchor x="494" y="0" name="bottom"/>
  <anchor x="537" y="536" name="top"/>
  <outline>
    <contour>
      <point x="102" y="0" type="line"/>
      <point x="226" y="0" type="line"/>
      <point x="274" y="235" type="line" smooth="yes"/>
      <point x="285" y="287"/>
      <point x="291" y="323"/>
      <point x="296" y="371" type="curve"/>
      <point x="300" y="371" type="line"/>
      <point x="304" y="323"/>
      <point x="309" y="284"/>
      <point x="319" y="235" type="curve" smooth="yes"/>
      <point x="366" y="0" type="line"/>
      <point x="494" y="0" type="line"/>
      <point x="569" y="548" type="line"/>
      <point x="443" y="548" type="line"/>
      <point x="423" y="348" type="line" smooth="yes"/>
      <point x="420" y="315"/>
      <point x="415" y="257"/>
      <point x="411" y="182" type="curve"/>
      <point x="408" y="182" type="line"/>
      <point x="395" y="257"/>
      <point x="384" y="314"/>
      <point x="376" y="351" type="curve" smooth="yes"/>
      <point x="336" y="548" type="line"/>
      <point x="260" y="548" type="line"/>
      <point x="219" y="351" type="line" smooth="yes"/>
      <point x="211" y="314"/>
      <point x="201" y="257"/>
      <point x="187" y="182" type="curve"/>
      <point x="185" y="182" type="line"/>
      <point x="180" y="257"/>
      <point x="176" y="315"/>
      <point x="173" y="348" type="curve" smooth="yes"/>
      <point x="153" y="548" type="line"/>
      <point x="27" y="548" type="line"/>
    </contour>
  </outline>
</glyph>
<glyph name="foFan-thai" format="2">
  <advance width="590"/>
  <unicode hex="0E1F"/>
  <anchor x="493" y="0" name="bottom"/>
  <anchor x="382" y="536" name="top"/>
  <outline>
    <contour>
      <point x="101" y="0" type="line"/>
      <point x="225" y="0" type="line"/>
      <point x="273" y="235" type="line" smooth="yes"/>
      <point x="284" y="287"/>
      <point x="290" y="323"/>
      <point x="295" y="371" type="curve"/>
      <point x="299" y="371" type="line"/>
      <point x="304" y="323"/>
      <point x="308" y="283"/>
      <point x="318" y="235" type="curve" smooth="yes"/>
      <point x="366" y="0" type="line"/>
      <point x="493" y="0" type="line"/>
      <point x="581" y="745" type="line"/>
      <point x="455" y="745" type="line"/>
      <point x="421" y="348" type="line" smooth="yes"/>
      <point x="418" y="315"/>
      <point x="414" y="256"/>
      <point x="410" y="182" type="curve"/>
      <point x="408" y="182" type="line"/>
      <point x="395" y="243"/>
      <point x="385" y="301"/>
      <point x="375" y="351" type="curve" smooth="yes"/>
      <point x="335" y="548" type="line"/>
      <point x="259" y="548" type="line"/>
      <point x="219" y="351" type="line" smooth="yes"/>
      <point x="209" y="301"/>
      <point x="199" y="243"/>
      <point x="186" y="182" type="curve"/>
      <point x="184" y="182" type="line"/>
      <point x="180" y="252"/>
      <point x="174" y="325"/>
      <point x="172" y="348" type="curve" smooth="yes"/>
      <point x="153" y="548" type="line"/>
      <point x="27" y="548" type="line"/>
    </contour>
  </outline>
</glyph>
<glyph name="phoSamphao-thai" format="2">
  <advance width="525"/>
  <unicode hex="0E20"/>
  <anchor x="466" y="0" name="bottom"/>
  <anchor x="452" y="536" name="top"/>
  <outline>
    <contour>
      <point x="99" y="-10" type="curve" smooth="yes"/>
      <point x="161" y="-10"/>
      <point x="206" y="20"/>
      <point x="206" y="106" type="curve" smooth="yes"/>
      <point x="206" y="192" type="line" smooth="yes"/>
      <point x="206" y="249"/>
      <point x="219" y="274"/>
      <point x="248" y="274" type="curve"/>
      <point x="256" y="336" type="line"/>
      <point x="191" y="377" type="line"/>
      <point x="193" y="417"/>
      <point x="213" y="448"/>
      <point x="260" y="448" type="curve" smooth="yes"/>
      <point x="310" y="448"/>
      <point x="335" y="415"/>
      <point x="335" y="344" type="curve" smooth="yes"/>
      <point x="335" y="0" type="line"/>
      <point x="466" y="0" type="line"/>
      <point x="466" y="353" type="line" smooth="yes"/>
      <point x="466" y="493"/>
      <point x="390" y="561"/>
      <point x="262" y="561" type="curve" smooth="yes"/>
      <point x="126" y="561"/>
      <point x="57" y="479"/>
      <point x="57" y="384" type="curve" smooth="yes"/>
      <point x="57" y="357" type="line"/>
      <point x="144" y="317" type="line"/>
      <point x="143" y="313" type="line"/>
      <point x="100" y="299"/>
      <point x="79" y="265"/>
      <point x="79" y="197" type="curve" smooth="yes"/>
      <point x="79" y="121" type="line" smooth="yes"/>
      <point x="79" y="96"/>
      <point x="72" y="85"/>
      <point x="54" y="85" type="curve" smooth="yes"/>
      <point x="47" y="85"/>
      <point x="41" y="87"/>
      <point x="34" y="90" type="curve"/>
      <point x="22" y="10" type="line"/>
      <point x="41" y="-3"/>
      <point x="67" y="-10"/>
    </contour>
  </outline>
</glyph>
<glyph name="moMa-thai" format="2">
  <advance width="531"/>
  <unicode hex="0E21"/>
  <note>
uni0E21
</note>
  <anchor x="461" y="0" name="bottom"/>
  <anchor x="477" y="536" name="top"/>
  <outline>
    <contour>
      <point x="326" y="-10" type="curve" smooth="yes"/>
      <point x="423" y="-10"/>
      <point x="472" y="60"/>
      <point x="472" y="190" type="curve" smooth="yes"/>
      <point x="472" y="548" type="line"/>
      <point x="342" y="548" type="line"/>
      <point x="342" y="219" type="line" smooth="yes"/>
      <point x="342" y="144"/>
      <point x="319" y="111"/>
      <point x="278" y="111" type="curve" smooth="yes"/>
      <point x="225" y="111"/>
      <point x="195" y="165"/>
      <point x="195" y="277" type="curve" smooth="yes"/>
      <point x="195" y="548" type="line"/>
      <point x="65" y="548" type="line"/>
      <point x="65" y="0" type="line"/>
      <point x="163" y="0" type="line"/>
      <point x="178" y="86" type="line"/>
      <point x="185" y="86" type="line"/>
      <point x="204" y="29"/>
      <point x="248" y="-10"/>
    </contour>
  </outline>
</glyph>
<glyph name="yoYak-thai" format="2">
  <advance width="511"/>
  <unicode hex="0E22"/>
  <note>
uni0E22
</note>
  <anchor x="430" y="0" name="bottom"/>
  <anchor x="452" y="536" name="top"/>
  <outline>
    <contour>
      <point x="247" y="-12" type="curve" smooth="yes"/>
      <point x="388" y="-12"/>
      <point x="452" y="51"/>
      <point x="452" y="188" type="curve" smooth="yes"/>
      <point x="452" y="548" type="line"/>
      <point x="322" y="548" type="line"/>
      <point x="322" y="183" type="line" smooth="yes"/>
      <point x="322" y="132"/>
      <point x="305" y="95"/>
      <point x="249" y="95" type="curve" smooth="yes"/>
      <point x="192" y="95"/>
      <point x="177" y="135"/>
      <point x="177" y="176" type="curve" smooth="yes"/>
      <point x="177" y="224"/>
      <point x="199" y="244"/>
      <point x="241" y="244" type="curve" smooth="yes"/>
      <point x="258" y="244" type="line"/>
      <point x="258" y="333" type="line"/>
      <point x="241" y="333" type="line" smooth="yes"/>
      <point x="208" y="333"/>
      <point x="175" y="344"/>
      <point x="175" y="397" type="curve" smooth="yes"/>
      <point x="175" y="430"/>
      <point x="189" y="452"/>
      <point x="220" y="452" type="curve" smooth="yes"/>
      <point x="234" y="452"/>
      <point x="248" y="448"/>
      <point x="256" y="444" type="curve"/>
      <point x="276" y="540" type="line"/>
      <point x="258" y="550"/>
      <point x="224" y="557"/>
      <point x="189" y="557" type="curve" smooth="yes"/>
      <point x="85" y="557"/>
      <point x="45" y="490"/>
      <point x="45" y="417" type="curve" smooth="yes"/>
      <point x="45" y="344"/>
      <point x="81" y="311"/>
      <point x="119" y="297" type="curve"/>
      <point x="119" y="291" type="line"/>
      <point x="83" y="281"/>
      <point x="45" y="247"/>
      <point x="45" y="159" type="curve" smooth="yes"/>
      <point x="45" y="56"/>
      <point x="100" y="-12"/>
    </contour>
  </outline>
</glyph>
<glyph name="roRua-thai" format="2">
  <advance width="428"/>
  <unicode hex="0E23"/>
  <note>
uni0E23
</note>
  <anchor x="353" y="0" name="bottom"/>
  <anchor x="384" y="536" name="top"/>
  <outline>
    <contour>
      <point x="215" y="-13" type="curve" smooth="yes"/>
      <point x="354" y="-13"/>
      <point x="397" y="69"/>
      <point x="397" y="158" type="curve" smooth="yes"/>
      <point x="397" y="253"/>
      <point x="355" y="295"/>
      <point x="270" y="332" type="curve" smooth="yes"/>
      <point x="209" y="359"/>
      <point x="173" y="372"/>
      <point x="173" y="406" type="curve" smooth="yes"/>
      <point x="173" y="434"/>
      <point x="194" y="452"/>
      <point x="233" y="452" type="curve" smooth="yes"/>
      <point x="278" y="452"/>
      <point x="336" y="434"/>
      <point x="365" y="418" type="curve"/>
      <point x="365" y="529" type="line"/>
      <point x="338" y="547"/>
      <point x="287" y="561"/>
      <point x="226" y="561" type="curve" smooth="yes"/>
      <point x="118" y="561"/>
      <point x="42" y="508"/>
      <point x="42" y="403" type="curve" smooth="yes"/>
      <point x="42" y="306"/>
      <point x="94" y="265"/>
      <point x="175" y="228" type="curve" smooth="yes"/>
      <point x="230" y="203"/>
      <point x="266" y="185"/>
      <point x="266" y="150" type="curve" smooth="yes"/>
      <point x="266" y="117"/>
      <point x="247" y="98"/>
      <point x="208" y="98" type="curve" smooth="yes"/>
      <point x="152" y="98"/>
      <point x="98" y="126"/>
      <point x="66" y="147" type="curve"/>
      <point x="30" y="36" type="line"/>
      <point x="81" y="5"/>
      <point x="151" y="-13"/>
    </contour>
  </outline>
</glyph>
<glyph name="woWaen-thai" format="2">
  <advance width="423"/>
  <unicode hex="0E27"/>
  <anchor x="328" y="0" name="bottom"/>
  <anchor x="378" y="536" name="top"/>
  <outline>
    <contour>
      <point x="180" y="-13" type="curve" smooth="yes"/>
      <point x="309" y="-13"/>
      <point x="382" y="89"/>
      <point x="382" y="277" type="curve" smooth="yes"/>
      <point x="382" y="453"/>
      <point x="319" y="561"/>
      <point x="171" y="561" type="curve" smooth="yes"/>
      <point x="121" y="561"/>
      <point x="78" y="550"/>
      <point x="45" y="531" type="curve"/>
      <point x="45" y="416" type="line"/>
      <point x="70" y="435"/>
      <point x="111" y="448"/>
      <point x="147" y="448" type="curve" smooth="yes"/>
      <point x="216" y="448"/>
      <point x="249" y="388"/>
      <point x="249" y="277" type="curve" smooth="yes"/>
      <point x="249" y="160"/>
      <point x="212" y="100"/>
      <point x="158" y="100" type="curve" smooth="yes"/>
      <point x="127" y="100"/>
      <point x="89" y="116"/>
      <point x="66" y="133" type="curve"/>
      <point x="32" y="31" type="line"/>
      <point x="73" y="2"/>
      <point x="124" y="-13"/>
    </contour>
  </outline>
</glyph>
<glyph name="soSala-thai" format="2">
  <advance width="541"/>
  <unicode hex="0E28"/>
  <anchor x="472" y="0" name="bottom"/>
  <anchor x="438" y="536" name="top"/>
  <outline>
    <contour>
      <point x="59" y="0" type="line"/>
      <point x="188" y="0" type="line"/>
      <point x="188" y="74" type="line" smooth="yes"/>
      <point x="188" y="141"/>
      <point x="205" y="197"/>
      <point x="281" y="197" type="curve" smooth="yes"/>
      <point x="298" y="197" type="line"/>
      <point x="298" y="303" type="line"/>
      <point x="281" y="303" type="line" smooth="yes"/>
      <point x="234" y="303"/>
      <point x="211" y="291"/>
      <point x="191" y="239" type="curve"/>
      <point x="188" y="240" type="line"/>
      <point x="188" y="331" type="line" smooth="yes"/>
      <point x="188" y="405"/>
      <point x="211" y="448"/>
      <point x="267" y="448" type="curve" smooth="yes"/>
      <point x="323" y="448"/>
      <point x="345" y="405"/>
      <point x="345" y="331" type="curve" smooth="yes"/>
      <point x="345" y="0" type="line"/>
      <point x="475" y="0" type="line"/>
      <point x="475" y="328" type="line" smooth="yes"/>
      <point x="475" y="408"/>
      <point x="457" y="468"/>
      <point x="404" y="492" type="curve"/>
      <point x="379" y="543"/>
      <point x="329" y="561"/>
      <point x="269" y="561" type="curve" smooth="yes"/>
      <point x="123" y="561"/>
      <point x="59" y="479"/>
      <point x="59" y="329" type="curve" smooth="yes"/>
    </contour>
    <contour>
      <point x="409" y="444" type="line"/>
      <point x="484" y="467"/>
      <point x="511" y="522"/>
      <point x="511" y="584" type="curve"/>
      <point x="399" y="584" type="line"/>
      <point x="398" y="547"/>
      <point x="377" y="524"/>
      <point x="337" y="510" type="curve"/>
    </contour>
  </outline>
</glyph>
<glyph name="soRusi-thai" format="2">
  <advance width="555"/>
  <unicode hex="0E29"/>
  <anchor x="454" y="0" name="bottom"/>
  <anchor x="478" y="536" name="top"/>
  <outline>
    <contour>
      <point x="268" y="-13" type="curve" smooth="yes"/>
      <point x="417" y="-13"/>
      <point x="478" y="70"/>
      <point x="478" y="221" type="curve" smooth="yes"/>
      <point x="478" y="548" type="line"/>
      <point x="349" y="548" type="line"/>
      <point x="349" y="215" type="line" smooth="yes"/>
      <point x="349" y="134"/>
      <point x="326" y="99"/>
      <point x="271" y="99" type="curve" smooth="yes"/>
      <point x="211" y="99"/>
      <point x="188" y="138"/>
      <point x="188" y="215" type="curve" smooth="yes"/>
      <point x="188" y="548" type="line"/>
      <point x="59" y="548" type="line"/>
      <point x="59" y="221" type="line" smooth="yes"/>
      <point x="59" y="70"/>
      <point x="119" y="-13"/>
    </contour>
    <contour>
      <point x="320" y="219" type="curve" smooth="yes"/>
      <point x="522" y="219" type="line"/>
      <point x="522" y="312" type="line"/>
      <point x="327" y="312" type="line" smooth="yes"/>
      <point x="314" y="312"/>
      <point x="304" y="326"/>
      <point x="304" y="344" type="curve" smooth="yes"/>
      <point x="304" y="353"/>
      <point x="306" y="365"/>
      <point x="309" y="372" type="curve"/>
      <point x="235" y="389" type="line"/>
      <point x="224" y="374"/>
      <point x="218" y="345"/>
      <point x="218" y="321" type="curve" smooth="yes"/>
      <point x="218" y="272"/>
      <point x="242" y="219"/>
    </contour>
  </outline>
</glyph>
<glyph name="soSua-thai" format="2">
  <advance width="495"/>
  <unicode hex="0E2A"/>
  <note>
uni0E2A
</note>
  <anchor x="434" y="0" name="bottom"/>
  <anchor x="434" y="536" name="top"/>
  <outline>
    <contour>
      <point x="306" y="0" type="line"/>
      <point x="434" y="0" type="line"/>
      <point x="434" y="353" type="line" smooth="yes"/>
      <point x="434" y="429"/>
      <point x="415" y="480"/>
      <point x="368" y="498" type="curve"/>
      <point x="347" y="547"/>
      <point x="298" y="561"/>
      <point x="240" y="561" type="curve" smooth="yes"/>
      <point x="165" y="561"/>
      <point x="105" y="537"/>
      <point x="75" y="518" type="curve"/>
      <point x="75" y="401" type="line"/>
      <point x="112" y="429"/>
      <point x="170" y="452"/>
      <point x="225" y="452" type="curve" smooth="yes"/>
      <point x="280" y="452"/>
      <point x="306" y="425"/>
      <point x="306" y="357" type="curve" smooth="yes"/>
    </contour>
    <contour>
      <point x="177" y="-10" type="curve" smooth="yes"/>
      <point x="207" y="-10"/>
      <point x="238" y="-4"/>
      <point x="258" y="5" type="curve"/>
      <point x="248" y="94" type="line"/>
      <point x="238" y="90"/>
      <point x="225" y="86"/>
      <point x="213" y="86" type="curve" smooth="yes"/>
      <point x="183" y="86"/>
      <point x="163" y="107"/>
      <point x="163" y="151" type="curve" smooth="yes"/>
      <point x="163" y="195"/>
      <point x="182" y="222"/>
      <point x="236" y="228" type="curve" smooth="yes"/>
      <point x="327" y="238" type="line"/>
      <point x="327" y="341" type="line"/>
      <point x="222" y="331" type="line" smooth="yes"/>
      <point x="92" y="319"/>
      <point x="34" y="254"/>
      <point x="34" y="146" type="curve" smooth="yes"/>
      <point x="34" y="47"/>
      <point x="85" y="-10"/>
    </contour>
    <contour>
      <point x="366" y="444" type="line"/>
      <point x="442" y="467"/>
      <point x="468" y="522"/>
      <point x="468" y="584" type="curve"/>
      <point x="357" y="584" type="line"/>
      <point x="355" y="547"/>
      <point x="335" y="524"/>
      <point x="295" y="510" type="curve"/>
    </contour>
  </outline>
</glyph>
<glyph name="hoHip-thai" format="2">
  <advance width="511"/>
  <unicode hex="0E2B"/>
  <note>
uni0E2B
</note>
  <anchor x="462" y="0" name="bottom"/>
  <anchor x="442" y="536" name="top"/>
  <outline>
    <contour>
      <point x="65" y="0" type="line"/>
      <point x="193" y="0" type="line"/>
      <point x="193" y="173" type="line"/>
      <point x="465" y="543" type="line"/>
      <point x="465" y="548" type="line"/>
      <point x="323" y="548" type="line"/>
      <point x="196" y="338" type="line"/>
      <point x="193" y="338" type="line"/>
      <point x="193" y="548" type="line"/>
      <point x="65" y="548" type="line"/>
    </contour>
    <contour>
      <point x="332" y="0" type="line"/>
      <point x="462" y="0" type="line"/>
      <point x="462" y="203" type="line" smooth="yes"/>
      <point x="462" y="308"/>
      <point x="414" y="385"/>
      <point x="320" y="385" type="curve"/>
      <point x="243" y="287" type="line"/>
      <point x="299" y="287"/>
      <point x="332" y="255"/>
      <point x="332" y="183" type="curve" smooth="yes"/>
    </contour>
  </outline>
</glyph>
<glyph name="loChula-thai" format="2">
  <advance width="582"/>
  <unicode hex="0E2C"/>
  <anchor x="493" y="0" name="bottom"/>
  <outline>
    <contour>
      <point x="90" y="0" type="line"/>
      <point x="220" y="0" type="line"/>
      <point x="260" y="168" type="line" smooth="yes"/>
      <point x="271" y="213"/>
      <point x="280" y="252"/>
      <point x="290" y="321" type="curve"/>
      <point x="293" y="321" type="line"/>
      <point x="303" y="255"/>
      <point x="311" y="218"/>
      <point x="322" y="169" type="curve" smooth="yes"/>
      <point x="360" y="0" type="line"/>
      <point x="495" y="0" type="line"/>
      <point x="547" y="421" type="line" smooth="yes"/>
      <point x="553" y="472"/>
      <point x="542" y="533"/>
      <point x="496" y="556" type="curve"/>
      <point x="496" y="560" type="line"/>
      <point x="558" y="574"/>
      <point x="582" y="634"/>
      <point x="582" y="709" type="curve" smooth="yes"/>
      <point x="582" y="714" type="line"/>
      <point x="459" y="714" type="line"/>
      <point x="459" y="709" type="line" smooth="yes"/>
      <point x="459" y="651"/>
      <point x="437" y="611"/>
      <point x="364" y="611" type="curve" smooth="yes"/>
      <point x="300" y="611" type="line"/>
      <point x="300" y="519" type="line"/>
      <point x="353" y="519" type="line" smooth="yes"/>
      <point x="408" y="519"/>
      <point x="429" y="488"/>
      <point x="421" y="408" type="curve" smooth="yes"/>
      <point x="412" y="317" type="line" smooth="yes"/>
      <point x="408" y="273"/>
      <point x="404" y="213"/>
      <point x="402" y="154" type="curve"/>
      <point x="399" y="154" type="line"/>
      <point x="385" y="218"/>
      <point x="374" y="260"/>
      <point x="362" y="305" type="curve" smooth="yes"/>
      <point x="327" y="440" type="line"/>
      <point x="256" y="440" type="line"/>
      <point x="221" y="305" type="line" smooth="yes"/>
      <point x="209" y="259"/>
      <point x="198" y="218"/>
      <point x="183" y="154" type="curve"/>
      <point x="181" y="154" type="line"/>
      <point x="181" y="225"/>
      <point x="177" y="284"/>
      <point x="174" y="318" type="curve" smooth="yes"/>
      <point x="155" y="548" type="line"/>
      <point x="27" y="548" type="line"/>
    </contour>
  </outline>
</glyph>
<glyph name="oAng-thai" format="2">
  <advance width="486"/>
  <unicode hex="0E2D"/>
  <note>
uni0E2D
</note>
  <anchor x="392" y="0" name="bottom"/>
  <anchor x="418" y="536" name="top"/>
  <outline>
    <contour>
      <point x="236" y="-13" type="curve" smooth="yes"/>
      <point x="385" y="-13"/>
      <point x="448" y="90"/>
      <point x="448" y="271" type="curve" smooth="yes"/>
      <point x="448" y="448"/>
      <point x="384" y="561"/>
      <point x="227" y="561" type="curve" smooth="yes"/>
      <point x="167" y="561"/>
      <point x="99" y="543"/>
      <point x="64" y="521" type="curve"/>
      <point x="64" y="403" type="line"/>
      <point x="95" y="427"/>
      <point x="154" y="448"/>
      <point x="201" y="448" type="curve" smooth="yes"/>
      <point x="287" y="448"/>
      <point x="314" y="387"/>
      <point x="314" y="264" type="curve" smooth="yes"/>
      <point x="314" y="131"/>
      <point x="286" y="92"/>
      <point x="235" y="92" type="curve" smooth="yes"/>
      <point x="189" y="92"/>
      <point x="167" y="127"/>
      <point x="167" y="215" type="curve" smooth="yes"/>
      <point x="167" y="230" type="line"/>
      <point x="242" y="230" type="line"/>
      <point x="242" y="321" type="line"/>
      <point x="45" y="321" type="line"/>
      <point x="42" y="291"/>
      <point x="40" y="249"/>
      <point x="40" y="223" type="curve" smooth="yes"/>
      <point x="40" y="66"/>
      <point x="103" y="-13"/>
    </contour>
  </outline>
</glyph>
<glyph name="hoNokhuk-thai" format="2">
  <advance width="491"/>
  <unicode hex="0E2E"/>
  <anchor x="404" y="0" name="bottom"/>
  <anchor x="412" y="536" name="top"/>
  <outline>
    <contour>
      <point x="235" y="-13" type="curve" smooth="yes"/>
      <point x="385" y="-13"/>
      <point x="448" y="92"/>
      <point x="448" y="265" type="curve" smooth="yes"/>
      <point x="448" y="372"/>
      <point x="422" y="449"/>
      <point x="368" y="486" type="curve"/>
      <point x="338" y="540"/>
      <point x="286" y="561"/>
      <point x="224" y="561" type="curve" smooth="yes"/>
      <point x="168" y="561"/>
      <point x="99" y="543"/>
      <point x="63" y="521" type="curve"/>
      <point x="63" y="403" type="line"/>
      <point x="96" y="428"/>
      <point x="152" y="448"/>
      <point x="202" y="448" type="curve" smooth="yes"/>
      <point x="282" y="448"/>
      <point x="314" y="391"/>
      <point x="314" y="262" type="curve" smooth="yes"/>
      <point x="314" y="131"/>
      <point x="285" y="92"/>
      <point x="235" y="92" type="curve" smooth="yes"/>
      <point x="189" y="92"/>
      <point x="167" y="127"/>
      <point x="167" y="215" type="curve" smooth="yes"/>
      <point x="167" y="230" type="line"/>
      <point x="242" y="230" type="line"/>
      <point x="242" y="321" type="line"/>
      <point x="45" y="321" type="line"/>
      <point x="42" y="291"/>
      <point x="40" y="249"/>
      <point x="40" y="223" type="curve" smooth="yes"/>
      <point x="40" y="66"/>
      <point x="103" y="-13"/>
    </contour>
    <contour>
      <point x="364" y="444" type="line"/>
      <point x="439" y="467"/>
      <point x="466" y="522"/>
      <point x="466" y="584" type="curve"/>
      <point x="354" y="584" type="line"/>
      <point x="353" y="547"/>
      <point x="332" y="524"/>
      <point x="293" y="510" type="curve"/>
    </contour>
  </outline>
</glyph>
<glyph name="paiyannoi-thai" format="2">
  <advance width="447"/>
  <unicode hex="0E2F"/>
  <outline>
    <contour>
      <point x="256" y="0" type="line"/>
      <point x="387" y="0" type="line"/>
      <point x="387" y="548" type="line"/>
      <point x="256" y="548" type="line"/>
      <point x="256" y="418" type="line" smooth="yes"/>
      <point x="256" y="350"/>
      <point x="237" y="319"/>
      <point x="195" y="319" type="curve" smooth="yes"/>
      <point x="156" y="319"/>
      <point x="136" y="348"/>
      <point x="136" y="394" type="curve" smooth="yes"/>
      <point x="136" y="440"/>
      <point x="155" y="461"/>
      <point x="178" y="461" type="curve" smooth="yes"/>
      <point x="184" y="461"/>
      <point x="190" y="460"/>
      <point x="200" y="456" type="curve"/>
      <point x="209" y="546" type="line"/>
      <point x="186" y="556"/>
      <point x="164" y="558"/>
      <point x="149" y="558" type="curve" smooth="yes"/>
      <point x="64" y="558"/>
      <point x="14" y="495"/>
      <point x="14" y="392" type="curve" smooth="yes"/>
      <point x="14" y="271"/>
      <point x="84" y="213"/>
      <point x="163" y="213" type="curve" smooth="yes"/>
      <point x="234" y="213"/>
      <point x="284" y="254"/>
      <point x="285" y="327" type="curve"/>
      <point x="256" y="323" type="line"/>
    </contour>
  </outline>
</glyph>
<glyph name="maiHanaKat-thai" format="2">
  <unicode hex="0E31"/>
  <anchor x="-65" y="536" name="_top"/>
  <anchor x="-58" y="733" name="top"/>
  <outline>
    <contour>
      <point x="-186" y="626" type="curve" smooth="yes"/>
      <point x="15" y="626" type="line"/>
      <point x="15" y="718" type="line"/>
      <point x="-151" y="718" type="line" smooth="yes"/>
      <point x="-173" y="718"/>
      <point x="-181" y="729"/>
      <point x="-181" y="748" type="curve" smooth="yes"/>
      <point x="-181" y="756"/>
      <point x="-180" y="768"/>
      <point x="-177" y="776" type="curve"/>
      <point x="-270" y="790" type="line"/>
      <point x="-281" y="768"/>
      <point x="-287" y="741"/>
      <point x="-287" y="719" type="curve" smooth="yes"/>
      <point x="-287" y="672"/>
      <point x="-263" y="626"/>
    </contour>
  </outline>
</glyph>
<glyph name="saraAa-thai" format="2">
  <advance width="370"/>
  <unicode hex="0E32"/>
  <outline>
    <contour>
      <point x="181" y="0" type="line"/>
      <point x="311" y="0" type="line"/>
      <point x="311" y="391" type="line" smooth="yes"/>
      <point x="311" y="519"/>
      <point x="246" y="561"/>
      <point x="156" y="561" type="curve" smooth="yes"/>
      <point x="99" y="561"/>
      <point x="53" y="544"/>
      <point x="30" y="531" type="curve"/>
      <point x="30" y="417" type="line"/>
      <point x="54" y="435"/>
      <point x="83" y="449"/>
      <point x="117" y="449" type="curve" smooth="yes"/>
      <point x="161" y="449"/>
      <point x="181" y="424"/>
      <point x="181" y="366" type="curve" smooth="yes"/>
    </contour>
  </outline>
</glyph>
<glyph name="saraI-thai" format="2">
  <unicode hex="0E34"/>
  <anchor x="-65" y="536" name="_top"/>
  <anchor x="-65" y="713" name="top"/>
  <outline>
    <contour>
      <point x="-437" y="626" type="line"/>
      <point x="-65" y="626" type="line"/>
      <point x="-65" y="725" type="line"/>
      <point x="-352" y="725" type="line"/>
      <point x="-437" y="685" type="line"/>
    </contour>
  </outline>
</glyph>
<glyph name="saraIi-thai" format="2">
  <unicode hex="0E35"/>
  <anchor x="-65" y="536" name="_top"/>
  <anchor x="-65" y="772" name="top"/>
  <outline>
    <contour>
      <point x="-437" y="626" type="line"/>
      <point x="-65" y="626" type="line"/>
      <point x="-65" y="725" type="line"/>
      <point x="-352" y="725" type="line"/>
      <point x="-437" y="685" type="line"/>
    </contour>
    <contour>
      <point x="-175" y="683" type="line"/>
      <point x="-65" y="683" type="line"/>
      <point x="-65" y="796" type="line"/>
      <point x="-175" y="796" type="line"/>
    </contour>
  </outline>
</glyph>
<glyph name="saraUe-thai" format="2">
  <unicode hex="0E36"/>
  <anchor x="-65" y="536" name="_top"/>
  <anchor x="-66" y="772" name="top"/>
  <outline>
    <contour>
      <point x="-437" y="626" type="line"/>
      <point x="-129" y="626" type="line" smooth="yes"/>
      <point x="-72" y="626"/>
      <point x="-45" y="665"/>
      <point x="-45" y="717" type="curve" smooth="yes"/>
      <point x="-45" y="770"/>
      <point x="-76" y="809"/>
      <point x="-129" y="809" type="curve" smooth="yes"/>
      <point x="-180" y="809"/>
      <point x="-211" y="773"/>
      <point x="-211" y="724" type="curve" smooth="yes"/>
      <point x="-211" y="714"/>
      <point x="-210" y="702"/>
      <point x="-206" y="689" type="curve"/>
      <point x="-181" y="725" type="line"/>
      <point x="-352" y="725" type="line"/>
      <point x="-437" y="685" type="line"/>
    </contour>
    <contour>
      <point x="-130" y="677" type="curve" smooth="yes"/>
      <point x="-153" y="677"/>
      <point x="-165" y="695"/>
      <point x="-165" y="717" type="curve" smooth="yes"/>
      <point x="-165" y="739"/>
      <point x="-152" y="756"/>
      <point x="-131" y="756" type="curve" smooth="yes"/>
      <point x="-109" y="756"/>
      <point x="-96" y="739"/>
      <point x="-96" y="716" type="curve" smooth="yes"/>
      <point x="-96" y="694"/>
      <point x="-107" y="677"/>
    </contour>
  </outline>
</glyph>
<glyph name="saraUee-thai" format="2">
  <unicode hex="0E37"/>
  <anchor x="-67" y="536" name="_top"/>
  <anchor x="-102" y="772" name="top"/>
  <outline>
    <contour>
      <point x="-437" y="626" type="line"/>
      <point x="-65" y="626" type="line"/>
      <point x="-65" y="725" type="line"/>
      <point x="-352" y="725" type="line"/>
      <point x="-437" y="685" type="line"/>
    </contour>
    <contour>
      <point x="-269" y="683" type="line"/>
      <point x="-189" y="683" type="line"/>
      <point x="-189" y="796" type="line"/>
      <point x="-269" y="796" type="line"/>
    </contour>
    <contour>
      <point x="-144" y="683" type="line"/>
      <point x="-65" y="683" type="line"/>
      <point x="-65" y="796" type="line"/>
      <point x="-144" y="796" type="line"/>
    </contour>
  </outline>
</glyph>
<glyph name="phinthu-thai" format="2">
  <unicode hex="0E3A"/>
  <anchor x="-65" y="0" name="_bottom"/>
  <anchor x="-65" y="-209" name="bottom"/>
  <outline>
    <contour>
      <point x="-126" y="-206" type="curve" smooth="yes"/>
      <point x="-85" y="-206"/>
      <point x="-61" y="-180"/>
      <point x="-61" y="-131" type="curve" smooth="yes"/>
      <point x="-61" y="-82"/>
      <point x="-85" y="-56"/>
      <point x="-126" y="-56" type="curve" smooth="yes"/>
      <point x="-168" y="-56"/>
      <point x="-192" y="-82"/>
      <point x="-192" y="-131" type="curve" smooth="yes"/>
      <point x="-192" y="-180"/>
      <point x="-168" y="-206"/>
    </contour>
  </outline>
</glyph>
<glyph name="baht" format="2">
  <advance width="469"/>
  <unicode hex="0E3F"/>
  <outline>
    <contour>
      <point x="55" y="38" type="line"/>
      <point x="244" y="38" type="line" smooth="yes"/>
      <point x="362" y="38"/>
      <point x="433" y="109"/>
      <point x="433" y="224" type="curve" smooth="yes"/>
      <point x="433" y="305"/>
      <point x="404" y="355"/>
      <point x="336" y="374" type="curve"/>
      <point x="336" y="379" type="line"/>
      <point x="390" y="393"/>
      <point x="422" y="446"/>
      <point x="422" y="521" type="curve" smooth="yes"/>
      <point x="422" y="628"/>
      <point x="357" y="679"/>
      <point x="224" y="679" type="curve" smooth="yes"/>
      <point x="55" y="679" type="line"/>
    </contour>
    <contour>
      <point x="168" y="141" type="line"/>
      <point x="168" y="322" type="line"/>
      <point x="240" y="322" type="line" smooth="yes"/>
      <point x="290" y="322"/>
      <point x="318" y="290"/>
      <point x="318" y="233" type="curve" smooth="yes"/>
      <point x="318" y="172"/>
      <point x="294" y="141"/>
      <point x="244" y="141" type="curve" smooth="yes"/>
    </contour>
    <contour>
      <point x="168" y="419" type="line"/>
      <point x="168" y="579" type="line"/>
      <point x="233" y="579" type="line" smooth="yes"/>
      <point x="283" y="579"/>
      <point x="308" y="552"/>
      <point x="308" y="504" type="curve" smooth="yes"/>
      <point x="308" y="449"/>
      <point x="284" y="419"/>
      <point x="234" y="419" type="curve" smooth="yes"/>
    </contour>
    <contour>
      <point x="206" y="-59" type="line"/>
      <point x="267" y="-59" type="line"/>
      <point x="267" y="760" type="line"/>
      <point x="206" y="760" type="line"/>
    </contour>
  </outline>
</glyph>
<glyph name="saraE-thai" format="2">
  <advance width="290"/>
  <unicode hex="0E40"/>
  <outline>
    <contour>
      <point x="188" y="-10" type="curve" smooth="yes"/>
      <point x="219" y="-10"/>
      <point x="247" y="-4"/>
      <point x="267" y="9" type="curve"/>
      <point x="255" y="100" type="line"/>
      <point x="247" y="96"/>
      <point x="236" y="93"/>
      <point x="229" y="93" type="curve" smooth="yes"/>
      <point x="210" y="93"/>
      <point x="202" y="105"/>
      <point x="202" y="131" type="curve" smooth="yes"/>
      <point x="202" y="548" type="line"/>
      <point x="72" y="548" type="line"/>
      <point x="72" y="114" type="line" smooth="yes"/>
      <point x="72" y="28"/>
      <point x="110" y="-10"/>
    </contour>
  </outline>
</glyph>
<glyph name="saraO-thai" format="2">
  <advance width="305"/>
  <unicode hex="0E42"/>
  <outline>
    <contour>
      <point x="88" y="448" type="line"/>
      <point x="218" y="448" type="line"/>
      <point x="218" y="599" type="line" smooth="yes"/>
      <point x="218" y="664"/>
      <point x="207" y="704"/>
      <point x="177" y="724" type="curve"/>
      <point x="178" y="728" type="line"/>
      <point x="305" y="728" type="line"/>
      <point x="305" y="830" type="line"/>
      <point x="103" y="830" type="line"/>
      <point x="18" y="785" type="line"/>
      <point x="18" y="728" type="line"/>
      <point x="66" y="728"/>
      <point x="88" y="696"/>
      <point x="88" y="616" type="curve" smooth="yes"/>
    </contour>
    <component base="saraE-thai" xOffset="16"/>
  </outline>
</glyph>
<glyph name="saraAiMaimuan-thai" format="2">
  <advance width="287"/>
  <unicode hex="0E43"/>
  <outline>
    <contour>
      <point x="188" y="-10" type="curve" smooth="yes"/>
      <point x="219" y="-10"/>
      <point x="247" y="-4"/>
      <point x="267" y="9" type="curve"/>
      <point x="256" y="100" type="line"/>
      <point x="247" y="96"/>
      <point x="237" y="93"/>
      <point x="228" y="93" type="curve" smooth="yes"/>
      <point x="210" y="93"/>
      <point x="202" y="105"/>
      <point x="202" y="131" type="curve" smooth="yes"/>
      <point x="202" y="484" type="line" smooth="yes"/>
      <point x="202" y="533"/>
      <point x="216" y="545"/>
      <point x="242" y="590" type="curve" smooth="yes"/>
      <point x="260" y="621"/>
      <point x="280" y="659"/>
      <point x="280" y="713" type="curve" smooth="yes"/>
      <point x="280" y="800"/>
      <point x="226" y="843"/>
      <point x="139" y="843" type="curve" smooth="yes"/>
      <point x="81" y="843"/>
      <point x="37" y="825"/>
      <point x="23" y="815" type="curve"/>
      <point x="23" y="710" type="line"/>
      <point x="41" y="724"/>
      <point x="62" y="735"/>
      <point x="90" y="735" type="curve" smooth="yes"/>
      <point x="128" y="735"/>
      <point x="144" y="716"/>
      <point x="144" y="684" type="curve" smooth="yes"/>
      <point x="144" y="654"/>
      <point x="127" y="634"/>
      <point x="107" y="602" type="curve" smooth="yes"/>
      <point x="79" y="556"/>
      <point x="72" y="540"/>
      <point x="72" y="488" type="curve" smooth="yes"/>
      <point x="72" y="114" type="line" smooth="yes"/>
      <point x="72" y="28"/>
      <point x="110" y="-10"/>
    </contour>
  </outline>
</glyph>
<glyph name="saraAiMaimalai-thai" format="2">
  <advance width="297"/>
  <unicode hex="0E44"/>
  <outline>
    <contour>
      <point x="89" y="448" type="line"/>
      <point x="219" y="448" type="line"/>
      <point x="219" y="616" type="line" smooth="yes"/>
      <point x="219" y="701"/>
      <point x="252" y="728"/>
      <point x="290" y="728" type="curve"/>
      <point x="290" y="830" type="line"/>
      <point x="30" y="830" type="line"/>
      <point x="7" y="728" type="line"/>
      <point x="129" y="728" type="line"/>
      <point x="130" y="724" type="line"/>
      <point x="109" y="704"/>
      <point x="89" y="674"/>
      <point x="89" y="599" type="curve" smooth="yes"/>
    </contour>
    <component base="saraE-thai" xOffset="17"/>
  </outline>
</glyph>
<glyph name="lakkhangyao-thai" format="2">
  <advance width="371"/>
  <unicode hex="0E45"/>
  <outline>
    <contour>
      <point x="182" y="-210" type="line"/>
      <point x="312" y="-210" type="line"/>
      <point x="312" y="100" type="line"/>
      <point x="182" y="100" type="line"/>
    </contour>
    <component base="saraAa-thai"/>
  </outline>
</glyph>
<glyph name="maiyamok-thai" format="2">
  <advance width="526"/>
  <unicode hex="0E46"/>
  <outline>
    <contour>
      <point x="337" y="-210" type="line"/>
      <point x="467" y="-210" type="line"/>
      <point x="467" y="418" type="line" smooth="yes"/>
      <point x="467" y="532"/>
      <point x="416" y="561"/>
      <point x="355" y="561" type="curve" smooth="yes"/>
      <point x="310" y="561"/>
      <point x="279" y="545"/>
      <point x="264" y="509" type="curve"/>
      <point x="261" y="509" type="line"/>
      <point x="247" y="545"/>
      <point x="214" y="561"/>
      <point x="173" y="561" type="curve" smooth="yes"/>
      <point x="100" y="561"/>
      <point x="50" y="510"/>
      <point x="50" y="379" type="curve" smooth="yes"/>
      <point x="50" y="255"/>
      <point x="97" y="192"/>
      <point x="174" y="192" type="curve" smooth="yes"/>
      <point x="208" y="192"/>
      <point x="234" y="203"/>
      <point x="249" y="216" type="curve"/>
      <point x="228" y="305" type="line"/>
      <point x="220" y="301"/>
      <point x="211" y="299"/>
      <point x="203" y="299" type="curve" smooth="yes"/>
      <point x="179" y="299"/>
      <point x="168" y="319"/>
      <point x="168" y="381" type="curve" smooth="yes"/>
      <point x="168" y="438"/>
      <point x="178" y="459"/>
      <point x="198" y="459" type="curve" smooth="yes"/>
      <point x="215" y="459"/>
      <point x="226" y="445"/>
      <point x="226" y="412" type="curve" smooth="yes"/>
      <point x="226" y="377" type="line"/>
      <point x="281" y="377" type="line"/>
      <point x="281" y="412" type="line" smooth="yes"/>
      <point x="281" y="445"/>
      <point x="291" y="459"/>
      <point x="309" y="459" type="curve" smooth="yes"/>
      <point x="327" y="459"/>
      <point x="337" y="445"/>
      <point x="337" y="412" type="curve" smooth="yes"/>
    </contour>
  </outline>
</glyph>
<glyph name="maitaikhu-thai" format="2">
  <unicode hex="0E47"/>
  <anchor x="-64" y="536" name="_top"/>
  <anchor x="-165" y="845" name="top"/>
  <outline>
    <contour>
      <point x="-165" y="616" type="curve" smooth="yes"/>
      <point x="-115" y="616"/>
      <point x="-83" y="649"/>
      <point x="-83" y="720" type="curve" smooth="yes"/>
      <point x="-83" y="739" type="line"/>
      <point x="-170" y="739" type="line"/>
      <point x="-170" y="724" type="line" smooth="yes"/>
      <point x="-170" y="703"/>
      <point x="-178" y="688"/>
      <point x="-193" y="688" type="curve" smooth="yes"/>
      <point x="-212" y="688"/>
      <point x="-222" y="709"/>
      <point x="-225" y="735" type="curve"/>
      <point x="-241" y="735" type="line"/>
      <point x="-276" y="691" type="line"/>
      <point x="-292" y="691"/>
      <point x="-300" y="709"/>
      <point x="-300" y="734" type="curve" smooth="yes"/>
      <point x="-300" y="768"/>
      <point x="-285" y="784"/>
      <point x="-266" y="784" type="curve" smooth="yes"/>
      <point x="-84" y="784" type="line"/>
      <point x="-84" y="855" type="line"/>
      <point x="-289" y="855" type="line" smooth="yes"/>
      <point x="-341" y="855"/>
      <point x="-389" y="817"/>
      <point x="-389" y="737" type="curve" smooth="yes"/>
      <point x="-389" y="660"/>
      <point x="-345" y="619"/>
      <point x="-276" y="619" type="curve"/>
      <point x="-236" y="661" type="line"/>
      <point x="-222" y="632"/>
      <point x="-199" y="616"/>
    </contour>
  </outline>
</glyph>
<glyph name="maiEk-thai" format="2">
  <unicode hex="0E48"/>
  <anchor x="-65" y="536" name="_top"/>
  <anchor x="-65" y="845" name="top"/>
  <outline>
    <contour>
      <point x="-189" y="626" type="line"/>
      <point x="-70" y="626" type="line"/>
      <point x="-70" y="850" type="line"/>
      <point x="-189" y="850" type="line"/>
    </contour>
  </outline>
</glyph>
<glyph name="maiTho-thai" format="2">
  <unicode hex="0E49"/>
  <anchor x="-62" y="536" name="_top"/>
  <anchor x="-122" y="845" name="top"/>
  <outline>
    <contour>
      <point x="-299" y="625" type="line"/>
      <point x="-45" y="625" type="line"/>
      <point x="-45" y="718" type="line"/>
      <point x="-184" y="718" type="line"/>
      <point x="-182" y="692" type="line"/>
      <point x="-156" y="708"/>
      <point x="-145" y="735"/>
      <point x="-145" y="765" type="curve" smooth="yes"/>
      <point x="-145" y="818"/>
      <point x="-174" y="848"/>
      <point x="-223" y="848" type="curve" smooth="yes"/>
      <point x="-246" y="848"/>
      <point x="-283" y="842"/>
      <point x="-305" y="820" type="curve"/>
      <point x="-290" y="755" type="line"/>
      <point x="-283" y="759"/>
      <point x="-273" y="764"/>
      <point x="-265" y="764" type="curve" smooth="yes"/>
      <point x="-252" y="764"/>
      <point x="-243" y="753"/>
      <point x="-243" y="734" type="curve" smooth="yes"/>
      <point x="-243" y="697"/>
      <point x="-280" y="682"/>
      <point x="-299" y="674" type="curve"/>
    </contour>
  </outline>
</glyph>
<glyph name="maiTri-thai" format="2">
  <unicode hex="0E4A"/>
  <anchor x="-65" y="536" name="_top"/>
  <anchor x="-150" y="845" name="top"/>
  <outline>
    <contour>
      <point x="-279" y="621" type="curve" smooth="yes"/>
      <point x="-261" y="621"/>
      <point x="-239" y="625"/>
      <point x="-231" y="632" type="curve"/>
      <point x="-236" y="693" type="line"/>
      <point x="-242" y="690"/>
      <point x="-247" y="690"/>
      <point x="-251" y="690" type="curve" smooth="yes"/>
      <point x="-267" y="690"/>
      <point x="-276" y="705"/>
      <point x="-276" y="729" type="curve" smooth="yes"/>
      <point x="-276" y="755"/>
      <point x="-265" y="765"/>
      <point x="-256" y="767" type="curve"/>
      <point x="-229" y="744" type="line"/>
      <point x="-225" y="744" type="line"/>
      <point x="-197" y="767" type="line"/>
      <point x="-187" y="766"/>
      <point x="-175" y="754"/>
      <point x="-175" y="728" type="curve" smooth="yes"/>
      <point x="-175" y="704"/>
      <point x="-186" y="693"/>
      <point x="-199" y="686" type="curve"/>
      <point x="-199" y="626" type="line"/>
      <point x="-31" y="626" type="line"/>
      <point x="-31" y="713" type="line"/>
      <point x="-105" y="713" type="line"/>
      <point x="-102" y="697" type="line"/>
      <point x="-92" y="710"/>
      <point x="-85" y="729"/>
      <point x="-85" y="755" type="curve" smooth="yes"/>
      <point x="-85" y="802"/>
      <point x="-109" y="842"/>
      <point x="-183" y="846" type="curve"/>
      <point x="-227" y="809" type="line"/>
      <point x="-278" y="846" type="line"/>
      <point x="-335" y="842"/>
      <point x="-371" y="800"/>
      <point x="-371" y="731" type="curve" smooth="yes"/>
      <point x="-371" y="663"/>
      <point x="-337" y="621"/>
    </contour>
  </outline>
</glyph>
<glyph name="maiChattawa-thai" format="2">
  <unicode hex="0E4B"/>
  <anchor x="-65" y="536" name="_top"/>
  <anchor x="-74" y="845" name="top"/>
  <outline>
    <contour>
      <point x="-191" y="626" type="line"/>
      <point x="-87" y="626" type="line"/>
      <point x="-87" y="850" type="line"/>
      <point x="-191" y="850" type="line"/>
    </contour>
    <contour>
      <point x="-245" y="696" type="line"/>
      <point x="-33" y="696" type="line"/>
      <point x="-33" y="779" type="line"/>
      <point x="-245" y="779" type="line"/>
    </contour>
  </outline>
</glyph>
<glyph name="thanthakhat-thai" format="2">
  <unicode hex="0E4C"/>
  <anchor x="-65" y="536" name="_top"/>
  <anchor x="-69" y="771" name="top"/>
  <outline>
    <contour>
      <point x="-217" y="603" type="curve"/>
      <point x="-116" y="621" type="line"/>
      <point x="-120" y="631"/>
      <point x="-123" y="642"/>
      <point x="-123" y="652" type="curve" smooth="yes"/>
      <point x="-123" y="674"/>
      <point x="-111" y="682"/>
      <point x="-91" y="682" type="curve" smooth="yes"/>
      <point x="-17" y="682" type="line"/>
      <point x="-17" y="778" type="line"/>
      <point x="-135" y="778" type="line" smooth="yes"/>
      <point x="-210" y="778"/>
      <point x="-233" y="734"/>
      <point x="-233" y="680" type="curve" smooth="yes"/>
      <point x="-233" y="651"/>
      <point x="-226" y="621"/>
    </contour>
  </outline>
</glyph>
<glyph name="nikhahit-thai" format="2">
  <unicode hex="0E4D"/>
  <anchor x="-65" y="536" name="_top"/>
  <anchor x="-88" y="772" name="top"/>
  <outline>
    <contour>
      <point x="-150" y="603" type="curve" smooth="yes"/>
      <point x="-87" y="603"/>
      <point x="-47" y="639"/>
      <point x="-47" y="701" type="curve" smooth="yes"/>
      <point x="-47" y="763"/>
      <point x="-87" y="799"/>
      <point x="-150" y="799" type="curve" smooth="yes"/>
      <point x="-213" y="799"/>
      <point x="-253" y="763"/>
      <point x="-253" y="701" type="curve" smooth="yes"/>
      <point x="-253" y="639"/>
      <point x="-213" y="603"/>
    </contour>
    <contour>
      <point x="-150" y="660" type="curve" smooth="yes"/>
      <point x="-172" y="660"/>
      <point x="-186" y="676"/>
      <point x="-186" y="701" type="curve" smooth="yes"/>
      <point x="-186" y="726"/>
      <point x="-172" y="742"/>
      <point x="-150" y="742" type="curve" smooth="yes"/>
      <point x="-127" y="742"/>
      <point x="-114" y="726"/>
      <point x="-114" y="701" type="curve" smooth="yes"/>
      <point x="-114" y="676"/>
      <point x="-127" y="660"/>
    </contour>
  </outline>
</glyph>
<glyph name="yamakkan-thai" format="2">
  <unicode hex="0E4E"/>
  <anchor x="-65" y="536" name="_top"/>
  <anchor x="-68" y="769" name="top"/>
  <outline>
    <contour>
      <point x="-226" y="603" type="curve"/>
      <point x="-148" y="618" type="line"/>
      <point x="-151" y="626"/>
      <point x="-152" y="632"/>
      <point x="-152" y="640" type="curve" smooth="yes"/>
      <point x="-152" y="656"/>
      <point x="-145" y="669"/>
      <point x="-128" y="669" type="curve" smooth="yes"/>
      <point x="-122" y="669"/>
      <point x="-112" y="668"/>
      <point x="-104" y="659" type="curve"/>
      <point x="-73" y="684" type="line"/>
      <point x="-77" y="692"/>
      <point x="-79" y="701"/>
      <point x="-79" y="708" type="curve" smooth="yes"/>
      <point x="-79" y="730"/>
      <point x="-64" y="742"/>
      <point x="-46" y="742" type="curve" smooth="yes"/>
      <point x="-38" y="742"/>
      <point x="-26" y="740"/>
      <point x="-18" y="736" type="curve"/>
      <point x="-18" y="801" type="line"/>
      <point x="-33" y="809"/>
      <point x="-55" y="812"/>
      <point x="-69" y="812" type="curve" smooth="yes"/>
      <point x="-107" y="812"/>
      <point x="-142" y="791"/>
      <point x="-142" y="744" type="curve" smooth="yes"/>
      <point x="-142" y="730"/>
      <point x="-139" y="712"/>
      <point x="-131" y="701" type="curve"/>
      <point x="-119" y="711" type="line"/>
      <point x="-131" y="722"/>
      <point x="-143" y="732"/>
      <point x="-168" y="732" type="curve" smooth="yes"/>
      <point x="-208" y="732"/>
      <point x="-239" y="708"/>
      <point x="-239" y="657" type="curve" smooth="yes"/>
      <point x="-239" y="637"/>
      <point x="-234" y="616"/>
    </contour>
  </outline>
</glyph>
<glyph name="zero-thai" format="2">
  <advance width="462"/>
  <unicode hex="0E50"/>
  <outline>
    <contour>
      <point x="231" y="-13" type="curve" smooth="yes"/>
      <point x="355" y="-13"/>
      <point x="422" y="80"/>
      <point x="422" y="228" type="curve" smooth="yes"/>
      <point x="422" y="382"/>
      <point x="355" y="468"/>
      <point x="231" y="468" type="curve" smooth="yes"/>
      <point x="107" y="468"/>
      <point x="40" y="382"/>
      <point x="40" y="228" type="curve" smooth="yes"/>
      <point x="40" y="80"/>
      <point x="107" y="-13"/>
    </contour>
    <contour>
      <point x="231" y="94" type="curve" smooth="yes"/>
      <point x="186" y="94"/>
      <point x="165" y="139"/>
      <point x="165" y="228" type="curve" smooth="yes"/>
      <point x="165" y="322"/>
      <point x="186" y="361"/>
      <point x="231" y="361" type="curve" smooth="yes"/>
      <point x="276" y="361"/>
      <point x="297" y="322"/>
      <point x="297" y="228" type="curve" smooth="yes"/>
      <point x="297" y="139"/>
      <point x="276" y="94"/>
    </contour>
  </outline>
</glyph>
<glyph name="one-thai" format="2">
  <advance width="433"/>
  <unicode hex="0E51"/>
  <outline>
    <contour>
      <point x="202" y="-13" type="curve" smooth="yes"/>
      <point x="339" y="-13"/>
      <point x="393" y="92"/>
      <point x="393" y="235" type="curve" smooth="yes"/>
      <point x="393" y="378"/>
      <point x="340" y="465"/>
      <point x="202" y="465" type="curve" smooth="yes"/>
      <point x="87" y="465"/>
      <point x="36" y="404"/>
      <point x="36" y="289" type="curve" smooth="yes"/>
      <point x="36" y="188"/>
      <point x="78" y="129"/>
      <point x="142" y="129" type="curve" smooth="yes"/>
      <point x="171" y="129"/>
      <point x="202" y="139"/>
      <point x="216" y="153" type="curve"/>
      <point x="198" y="240" type="line"/>
      <point x="193" y="237"/>
      <point x="187" y="236"/>
      <point x="181" y="236" type="curve" smooth="yes"/>
      <point x="162" y="236"/>
      <point x="150" y="257"/>
      <point x="150" y="294" type="curve" smooth="yes"/>
      <point x="150" y="342"/>
      <point x="169" y="364"/>
      <point x="203" y="364" type="curve" smooth="yes"/>
      <point x="246" y="364"/>
      <point x="269" y="333"/>
      <point x="269" y="238" type="curve" smooth="yes"/>
      <point x="269" y="134"/>
      <point x="235" y="86"/>
      <point x="167" y="86" type="curve" smooth="yes"/>
      <point x="153" y="86"/>
      <point x="141" y="89"/>
      <point x="132" y="93" type="curve"/>
      <point x="132" y="0" type="line"/>
      <point x="153" y="-8"/>
      <point x="178" y="-13"/>
    </contour>
  </outline>
</glyph>
<glyph name="eight-thai" format="2">
  <advance width="462"/>
  <unicode hex="0E58"/>
  <outline>
    <contour>
      <point x="310" y="-13" type="curve" smooth="yes"/>
      <point x="381" y="-13"/>
      <point x="424" y="45"/>
      <point x="424" y="145" type="curve" smooth="yes"/>
      <point x="424" y="207"/>
      <point x="410" y="255"/>
      <point x="371" y="288" type="curve"/>
      <point x="301" y="221" type="line"/>
      <point x="308" y="210"/>
      <point x="321" y="191"/>
      <point x="321" y="156" type="curve" smooth="yes"/>
      <point x="321" y="119"/>
      <point x="308" y="99"/>
      <point x="287" y="99" type="curve" smooth="yes"/>
      <point x="266" y="99"/>
      <point x="253" y="118"/>
      <point x="253" y="165" type="curve"/>
      <point x="220" y="165" type="line"/>
      <point x="194" y="112" type="line"/>
      <point x="176" y="119"/>
      <point x="156" y="147"/>
      <point x="156" y="227" type="curve" smooth="yes"/>
      <point x="156" y="309"/>
      <point x="181" y="360"/>
      <point x="233" y="360" type="curve" smooth="yes"/>
      <point x="285" y="360" type="line" smooth="yes"/>
      <point x="362" y="360"/>
      <point x="399" y="412"/>
      <point x="399" y="504" type="curve" smooth="yes"/>
      <point x="399" y="584" type="line"/>
      <point x="278" y="584" type="line"/>
      <point x="278" y="529" type="line" smooth="yes"/>
      <point x="278" y="477"/>
      <point x="268" y="460"/>
      <point x="233" y="460" type="curve" smooth="yes"/>
      <point x="208" y="460" type="line" smooth="yes"/>
      <point x="76" y="460"/>
      <point x="40" y="352"/>
      <point x="40" y="219" type="curve" smooth="yes"/>
      <point x="40" y="64"/>
      <point x="90" y="-9"/>
      <point x="180" y="-9" type="curve"/>
      <point x="234" y="78" type="line"/>
      <point x="219" y="78" type="line"/>
      <point x="226" y="15"/>
      <point x="259" y="-13"/>
    </contour>
  </outline>
</glyph>
<glyph name="angkhankhu-thai" format="2">
  <advance width="679"/>
  <unicode hex="0E5A"/>
  <outline>
    <contour>
      <point x="256" y="0" type="line"/>
      <point x="387" y="0" type="line"/>
      <point x="387" y="548" type="line"/>
      <point x="256" y="548" type="line"/>
      <point x="256" y="414" type="line" smooth="yes"/>
      <point x="256" y="351"/>
      <point x="237" y="319"/>
      <point x="195" y="319" type="curve" smooth="yes"/>
      <point x="156" y="319"/>
      <point x="136" y="348"/>
      <point x="136" y="394" type="curve" smooth="yes"/>
      <point x="136" y="439"/>
      <point x="155" y="461"/>
      <point x="179" y="461" type="curve" smooth="yes"/>
      <point x="184" y="461"/>
      <point x="190" y="460"/>
      <point x="200" y="456" type="curve"/>
      <point x="209" y="546" type="line"/>
      <point x="186" y="556"/>
      <point x="164" y="558"/>
      <point x="149" y="558" type="curve" smooth="yes"/>
      <point x="64" y="558"/>
      <point x="14" y="495"/>
      <point x="14" y="392" type="curve" smooth="yes"/>
      <point x="14" y="271"/>
      <point x="84" y="213"/>
      <point x="164" y="213" type="curve" smooth="yes"/>
      <point x="233" y="213"/>
      <point x="284" y="253"/>
      <point x="285" y="335" type="curve"/>
      <point x="256" y="333" type="line"/>
    </contour>
    <contour>
      <point x="489" y="0" type="line"/>
      <point x="619" y="0" type="line"/>
      <point x="619" y="548" type="line"/>
      <point x="489" y="548" type="line"/>
      <point x="489" y="426" type="line" smooth="yes"/>
      <point x="489" y="358"/>
      <point x="461" y="320"/>
      <point x="420" y="320" type="curve" smooth="yes"/>
      <point x="398" y="320"/>
      <point x="379" y="329"/>
      <point x="359" y="346" type="curve"/>
      <point x="328" y="262" type="line"/>
      <point x="353" y="233"/>
      <point x="384" y="218"/>
      <point x="415" y="218" type="curve" smooth="yes"/>
      <point x="466" y="218"/>
      <point x="512" y="261"/>
      <point x="514" y="347" type="curve"/>
      <point x="489" y="345" type="line"/>
    </contour>
  </outline>
</glyph>
<glyph name="loChula-thai.short" format="2">
  <advance width="585"/>
  <anchor x="496" y="0" name="bottom"/>
  <anchor x="513" y="536" name="top"/>
  <outline>
    <contour>
      <point x="78" y="0" type="line"/>
      <point x="219" y="0" type="line"/>
      <point x="258" y="158" type="line" smooth="yes"/>
      <point x="268" y="201"/>
      <point x="279" y="239"/>
      <point x="287" y="288" type="curve"/>
      <point x="291" y="288" type="line"/>
      <point x="299" y="239"/>
      <point x="309" y="200"/>
      <point x="319" y="157" type="curve" smooth="yes"/>
      <point x="355" y="0" type="line"/>
      <point x="497" y="0" type="line"/>
      <point x="538" y="348" type="line" smooth="yes"/>
      <point x="544" y="398"/>
      <point x="533" y="446"/>
      <point x="486" y="464" type="curve"/>
      <point x="486" y="468" type="line"/>
      <point x="547" y="478"/>
      <point x="571" y="525"/>
      <point x="571" y="584" type="curve"/>
      <point x="447" y="584" type="line"/>
      <point x="444" y="544"/>
      <point x="436" y="524"/>
      <point x="394" y="524" type="curve" smooth="yes"/>
      <point x="330" y="524" type="line"/>
      <point x="330" y="435" type="line"/>
      <point x="373" y="435" type="line" smooth="yes"/>
      <point x="414" y="435"/>
      <point x="425" y="407"/>
      <point x="419" y="354" type="curve" smooth="yes"/>
      <point x="411" y="288" type="line" smooth="yes"/>
      <point x="405" y="236"/>
      <point x="401" y="191"/>
      <point x="399" y="123" type="curve"/>
      <point x="396" y="123" type="line"/>
      <point x="383" y="186"/>
      <point x="371" y="244"/>
      <point x="358" y="286" type="curve" smooth="yes"/>
      <point x="326" y="395" type="line"/>
      <point x="250" y="395" type="line"/>
      <point x="220" y="285" type="line" smooth="yes"/>
      <point x="203" y="221"/>
      <point x="191" y="172"/>
      <point x="181" y="128" type="curve"/>
      <point x="178" y="128" type="line"/>
      <point x="179" y="200"/>
      <point x="180" y="259"/>
      <point x="176" y="317" type="curve" smooth="yes"/>
      <point x="161" y="548" type="line"/>
      <point x="27" y="548" type="line"/>
    </contour>
  </outline>
</glyph>
<glyph name="lu-thai.short" format="2">
  <advance width="525"/>
  <anchor x="466" y="-174" name="bottom"/>
  <anchor x="442" y="538" name="top"/>
  <outline>
    <contour>
      <point x="335" y="-174" type="line"/>
      <point x="466" y="-174" type="line"/>
      <point x="466" y="100" type="line"/>
      <point x="335" y="100" type="line"/>
    </contour>
    <component base="phoSamphao-thai"/>
  </outline>
</glyph>
<glyph name="lu_lakkhangyao-thai" format="2">
  <advance width="796"/>
  <outline>
    <contour>
      <point x="335" y="-210" type="line"/>
      <point x="466" y="-210" type="line"/>
      <point x="466" y="338" type="line" smooth="yes"/>
      <point x="466" y="415"/>
      <point x="490" y="448"/>
      <point x="536" y="448" type="curve" smooth="yes"/>
      <point x="581" y="448"/>
      <point x="606" y="416"/>
      <point x="606" y="341" type="curve" smooth="yes"/>
      <point x="606" y="-210" type="line"/>
      <point x="737" y="-210" type="line"/>
      <point x="737" y="358" type="line" smooth="yes"/>
      <point x="737" y="482"/>
      <point x="681" y="561"/>
      <point x="561" y="561" type="curve" smooth="yes"/>
      <point x="487" y="561"/>
      <point x="435" y="527"/>
      <point x="410" y="471" type="curve"/>
      <point x="407" y="471" type="line"/>
      <point x="384" y="528"/>
      <point x="331" y="561"/>
      <point x="258" y="561" type="curve" smooth="yes"/>
      <point x="127" y="561"/>
      <point x="57" y="479"/>
      <point x="57" y="384" type="curve" smooth="yes"/>
      <point x="57" y="357" type="line"/>
      <point x="144" y="317" type="line"/>
      <point x="143" y="313" type="line"/>
      <point x="100" y="299"/>
      <point x="79" y="265"/>
      <point x="79" y="197" type="curve" smooth="yes"/>
      <point x="79" y="121" type="line" smooth="yes"/>
      <point x="79" y="96"/>
      <point x="72" y="85"/>
      <point x="54" y="85" type="curve" smooth="yes"/>
      <point x="47" y="85"/>
      <point x="41" y="87"/>
      <point x="34" y="90" type="curve"/>
      <point x="22" y="10" type="line"/>
      <point x="41" y="-3"/>
      <point x="67" y="-10"/>
      <point x="99" y="-10" type="curve" smooth="yes"/>
      <point x="161" y="-10"/>
      <point x="206" y="20"/>
      <point x="206" y="106" type="curve" smooth="yes"/>
      <point x="206" y="192" type="line" smooth="yes"/>
      <point x="206" y="249"/>
      <point x="219" y="274"/>
      <point x="248" y="274" type="curve"/>
      <point x="256" y="336" type="line"/>
      <point x="191" y="377" type="line"/>
      <point x="193" y="417"/>
      <point x="213" y="448"/>
      <point x="260" y="448" type="curve" smooth="yes"/>
      <point x="310" y="448"/>
      <point x="335" y="415"/>
      <point x="335" y="340" type="curve" smooth="yes"/>
    </contour>
  </outline>
</glyph>
<glyph name="maiChattawa-thai.narrow" format="2">
  <anchor x="-225" y="536" name="_top"/>
  <anchor x="-276" y="844" name="top"/>
  <outline>
    <contour>
      <point x="-384" y="626" type="line"/>
      <point x="-280" y="626" type="line"/>
      <point x="-280" y="850" type="line"/>
      <point x="-384" y="850" type="line"/>
    </contour>
    <contour>
      <point x="-438" y="696" type="line"/>
      <point x="-226" y="696" type="line"/>
      <point x="-226" y="779" type="line"/>
      <point x="-438" y="779" type="line"/>
    </contour>
  </outline>
</glyph>
<glyph name="maiChattawa-thai.small" format="2">
  <anchor x="-67" y="772" name="_top"/>
  <anchor x="-66" y="1032" name="top"/>
  <outline>
    <contour>
      <point x="-175" y="850" type="line"/>
      <point x="-72" y="850" type="line"/>
      <point x="-72" y="1032" type="line"/>
      <point x="-175" y="1032" type="line"/>
    </contour>
    <contour>
      <point x="-228" y="901" type="line"/>
      <point x="-19" y="901" type="line"/>
      <point x="-19" y="981" type="line"/>
      <point x="-228" y="981" type="line"/>
    </contour>
  </outline>
</glyph>
<glyph name="maiEk-thai.narrow" format="2">
  <anchor x="-225" y="536" name="_top"/>
  <anchor x="-241" y="845" name="top"/>
  <outline>
    <contour>
      <point x="-358" y="626" type="line"/>
      <point x="-240" y="626" type="line"/>
      <point x="-240" y="850" type="line"/>
      <point x="-358" y="850" type="line"/>
    </contour>
  </outline>
</glyph>
<glyph name="maiEk-thai.small" format="2">
  <anchor x="-67" y="772" name="_top"/>
  <anchor x="-65" y="1033" name="top"/>
  <outline>
    <contour>
      <point x="-176" y="850" type="line"/>
      <point x="-65" y="850" type="line"/>
      <point x="-65" y="1032" type="line"/>
      <point x="-176" y="1032" type="line"/>
    </contour>
  </outline>
</glyph>
<glyph name="maiHanaKat-thai.narrow" format="2">
  <anchor x="-225" y="536" name="_top"/>
  <anchor x="-236" y="739" name="top"/>
  <outline>
    <contour>
      <point x="-357" y="626" type="curve" smooth="yes"/>
      <point x="-225" y="626" type="line"/>
      <point x="-225" y="718" type="line"/>
      <point x="-322" y="718" type="line" smooth="yes"/>
      <point x="-344" y="718"/>
      <point x="-352" y="729"/>
      <point x="-352" y="748" type="curve" smooth="yes"/>
      <point x="-352" y="756"/>
      <point x="-351" y="768"/>
      <point x="-349" y="776" type="curve"/>
      <point x="-442" y="790" type="line"/>
      <point x="-452" y="768"/>
      <point x="-458" y="741"/>
      <point x="-458" y="719" type="curve" smooth="yes"/>
      <point x="-458" y="672"/>
      <point x="-434" y="626"/>
    </contour>
  </outline>
</glyph>
<glyph name="maiTho-thai.narrow" format="2">
  <anchor x="-225" y="536" name="_top"/>
  <anchor x="-272" y="845" name="top"/>
  <outline>
    <contour>
      <point x="-439" y="625" type="line"/>
      <point x="-225" y="625" type="line"/>
      <point x="-225" y="718" type="line"/>
      <point x="-326" y="718" type="line"/>
      <point x="-323" y="696" type="line"/>
      <point x="-294" y="711"/>
      <point x="-286" y="739"/>
      <point x="-286" y="764" type="curve" smooth="yes"/>
      <point x="-286" y="819"/>
      <point x="-315" y="848"/>
      <point x="-364" y="848" type="curve" smooth="yes"/>
      <point x="-387" y="848"/>
      <point x="-424" y="842"/>
      <point x="-446" y="820" type="curve"/>
      <point x="-431" y="755" type="line"/>
      <point x="-424" y="759"/>
      <point x="-414" y="764"/>
      <point x="-406" y="764" type="curve" smooth="yes"/>
      <point x="-393" y="764"/>
      <point x="-384" y="754"/>
      <point x="-384" y="734" type="curve" smooth="yes"/>
      <point x="-384" y="697"/>
      <point x="-421" y="682"/>
      <point x="-439" y="674" type="curve"/>
    </contour>
  </outline>
</glyph>
<glyph name="maiTho-thai.small" format="2">
  <anchor x="-66" y="772" name="_top"/>
  <anchor x="-66" y="1033" name="top"/>
  <outline>
    <contour>
      <point x="-219" y="850" type="line"/>
      <point x="5" y="850" type="line"/>
      <point x="5" y="931" type="line"/>
      <point x="-114" y="931" type="line"/>
      <point x="-109" y="911" type="line"/>
      <point x="-86" y="924"/>
      <point x="-82" y="948"/>
      <point x="-82" y="968" type="curve" smooth="yes"/>
      <point x="-82" y="1013"/>
      <point x="-109" y="1032"/>
      <point x="-152" y="1032" type="curve" smooth="yes"/>
      <point x="-173" y="1032"/>
      <point x="-207" y="1028"/>
      <point x="-227" y="1010" type="curve"/>
      <point x="-213" y="954" type="line"/>
      <point x="-207" y="960"/>
      <point x="-198" y="964"/>
      <point x="-190" y="964" type="curve" smooth="yes"/>
      <point x="-180" y="964"/>
      <point x="-171" y="955"/>
      <point x="-171" y="940" type="curve" smooth="yes"/>
      <point x="-171" y="909"/>
      <point x="-205" y="896"/>
      <point x="-219" y="890" type="curve"/>
    </contour>
  </outline>
</glyph>
<glyph name="maiTri-thai.narrow" format="2">
  <anchor x="-225" y="536" name="_top"/>
  <anchor x="-307" y="845" name="top"/>
  <outline>
    <contour>
      <point x="-418" y="621" type="curve" smooth="yes"/>
      <point x="-403" y="621"/>
      <point x="-384" y="625"/>
      <point x="-377" y="632" type="curve"/>
      <point x="-381" y="693" type="line"/>
      <point x="-388" y="690"/>
      <point x="-392" y="690"/>
      <point x="-396" y="690" type="curve" smooth="yes"/>
      <point x="-411" y="690"/>
      <point x="-419" y="709"/>
      <point x="-419" y="729" type="curve" smooth="yes"/>
      <point x="-419" y="752"/>
      <point x="-410" y="767"/>
      <point x="-400" y="769" type="curve"/>
      <point x="-377" y="746" type="line"/>
      <point x="-374" y="746" type="line"/>
      <point x="-350" y="769" type="line"/>
      <point x="-341" y="767"/>
      <point x="-330" y="754"/>
      <point x="-330" y="728" type="curve" smooth="yes"/>
      <point x="-330" y="704"/>
      <point x="-339" y="693"/>
      <point x="-352" y="686" type="curve"/>
      <point x="-352" y="626" type="line"/>
      <point x="-220" y="626" type="line"/>
      <point x="-220" y="709" type="line"/>
      <point x="-270" y="709" type="line"/>
      <point x="-267" y="690" type="line"/>
      <point x="-258" y="705"/>
      <point x="-251" y="726"/>
      <point x="-251" y="755" type="curve" smooth="yes"/>
      <point x="-251" y="805"/>
      <point x="-274" y="842"/>
      <point x="-337" y="846" type="curve"/>
      <point x="-376" y="809" type="line"/>
      <point x="-419" y="846" type="line"/>
      <point x="-468" y="842"/>
      <point x="-501" y="802"/>
      <point x="-501" y="731" type="curve" smooth="yes"/>
      <point x="-501" y="663"/>
      <point x="-470" y="621"/>
    </contour>
  </outline>
</glyph>
<glyph name="maiTri-thai.small" format="2">
  <anchor x="-65" y="772" name="_top"/>
  <anchor x="-65" y="1032" name="top"/>
  <outline>
    <contour>
      <point x="-197" y="846" type="curve" smooth="yes"/>
      <point x="-181" y="846"/>
      <point x="-163" y="850"/>
      <point x="-155" y="856" type="curve"/>
      <point x="-160" y="909" type="line"/>
      <point x="-164" y="907"/>
      <point x="-169" y="906"/>
      <point x="-173" y="906" type="curve" smooth="yes"/>
      <point x="-186" y="906"/>
      <point x="-196" y="918"/>
      <point x="-196" y="936" type="curve" smooth="yes"/>
      <point x="-196" y="954"/>
      <point x="-188" y="967"/>
      <point x="-179" y="967" type="curve"/>
      <point x="-150" y="943" type="line"/>
      <point x="-146" y="943" type="line"/>
      <point x="-119" y="967" type="line"/>
      <point x="-110" y="965"/>
      <point x="-102" y="953"/>
      <point x="-102" y="936" type="curve" smooth="yes"/>
      <point x="-102" y="918"/>
      <point x="-112" y="906"/>
      <point x="-122" y="903" type="curve"/>
      <point x="-122" y="850" type="line"/>
      <point x="27" y="850" type="line"/>
      <point x="27" y="923" type="line"/>
      <point x="-49" y="923" type="line"/>
      <point x="-46" y="907" type="line"/>
      <point x="-36" y="914"/>
      <point x="-26" y="933"/>
      <point x="-26" y="961" type="curve" smooth="yes"/>
      <point x="-26" y="1011"/>
      <point x="-62" y="1032"/>
      <point x="-114" y="1032" type="curve"/>
      <point x="-148" y="997" type="line"/>
      <point x="-184" y="1032" type="line"/>
      <point x="-248" y="1032"/>
      <point x="-276" y="989"/>
      <point x="-276" y="938" type="curve" smooth="yes"/>
      <point x="-276" y="888"/>
      <point x="-254" y="846"/>
    </contour>
  </outline>
</glyph>
<glyph name="maitaikhu-thai.narrow" format="2">
  <anchor x="-225" y="536" name="_top"/>
  <anchor x="-272" y="824" name="top"/>
  <outline>
    <contour>
      <point x="-297" y="616" type="curve" smooth="yes"/>
      <point x="-253" y="616"/>
      <point x="-225" y="649"/>
      <point x="-225" y="720" type="curve" smooth="yes"/>
      <point x="-225" y="739" type="line"/>
      <point x="-301" y="739" type="line"/>
      <point x="-301" y="724" type="line" smooth="yes"/>
      <point x="-301" y="703"/>
      <point x="-309" y="688"/>
      <point x="-322" y="688" type="curve" smooth="yes"/>
      <point x="-338" y="688"/>
      <point x="-347" y="706"/>
      <point x="-348" y="735" type="curve"/>
      <point x="-364" y="735" type="line"/>
      <point x="-393" y="691" type="line"/>
      <point x="-407" y="691"/>
      <point x="-415" y="710"/>
      <point x="-415" y="734" type="curve" smooth="yes"/>
      <point x="-415" y="768"/>
      <point x="-402" y="784"/>
      <point x="-385" y="784" type="curve" smooth="yes"/>
      <point x="-226" y="784" type="line"/>
      <point x="-226" y="855" type="line"/>
      <point x="-404" y="855" type="line" smooth="yes"/>
      <point x="-451" y="855"/>
      <point x="-493" y="817"/>
      <point x="-493" y="737" type="curve" smooth="yes"/>
      <point x="-493" y="660"/>
      <point x="-454" y="619"/>
      <point x="-392" y="619" type="curve"/>
      <point x="-360" y="661" type="line"/>
      <point x="-347" y="632"/>
      <point x="-326" y="616"/>
    </contour>
  </outline>
</glyph>
<glyph name="ru_lakkhangyao-thai" format="2">
  <advance width="784"/>
  <outline>
    <contour>
      <point x="324" y="-210" type="line"/>
      <point x="454" y="-210" type="line"/>
      <point x="454" y="338" type="line" smooth="yes"/>
      <point x="454" y="415"/>
      <point x="479" y="448"/>
      <point x="525" y="448" type="curve" smooth="yes"/>
      <point x="570" y="448"/>
      <point x="595" y="416"/>
      <point x="595" y="341" type="curve" smooth="yes"/>
      <point x="595" y="-210" type="line"/>
      <point x="725" y="-210" type="line"/>
      <point x="725" y="358" type="line" smooth="yes"/>
      <point x="725" y="482"/>
      <point x="670" y="561"/>
      <point x="550" y="561" type="curve" smooth="yes"/>
      <point x="476" y="561"/>
      <point x="424" y="527"/>
      <point x="399" y="471" type="curve"/>
      <point x="396" y="471" type="line"/>
      <point x="369" y="528"/>
      <point x="318" y="561"/>
      <point x="241" y="561" type="curve" smooth="yes"/>
      <point x="118" y="561"/>
      <point x="46" y="479"/>
      <point x="46" y="384" type="curve" smooth="yes"/>
      <point x="46" y="357" type="line"/>
      <point x="132" y="317" type="line"/>
      <point x="131" y="313" type="line"/>
      <point x="81" y="295"/>
      <point x="53" y="260"/>
      <point x="53" y="181" type="curve" smooth="yes"/>
      <point x="53" y="114" type="line" smooth="yes"/>
      <point x="53" y="28"/>
      <point x="97" y="-10"/>
      <point x="171" y="-10" type="curve" smooth="yes"/>
      <point x="202" y="-10"/>
      <point x="230" y="-4"/>
      <point x="250" y="9" type="curve"/>
      <point x="238" y="94" type="line"/>
      <point x="230" y="90"/>
      <point x="220" y="88"/>
      <point x="211" y="88" type="curve" smooth="yes"/>
      <point x="189" y="88"/>
      <point x="179" y="100"/>
      <point x="179" y="129" type="curve" smooth="yes"/>
      <point x="179" y="195" type="line" smooth="yes"/>
      <point x="179" y="252"/>
      <point x="198" y="273"/>
      <point x="237" y="274" type="curve"/>
      <point x="245" y="335" type="line"/>
      <point x="180" y="377" type="line"/>
      <point x="182" y="417"/>
      <point x="202" y="448"/>
      <point x="249" y="448" type="curve" smooth="yes"/>
      <point x="298" y="448"/>
      <point x="324" y="415"/>
      <point x="324" y="340" type="curve" smooth="yes"/>
    </contour>
  </outline>
</glyph>
<glyph name="saraI-thai.narrow" format="2">
  <anchor x="-225" y="536" name="_top"/>
  <anchor x="-225" y="713" name="top"/>
  <outline>
    <contour>
      <point x="-527" y="626" type="line"/>
      <point x="-225" y="626" type="line"/>
      <point x="-225" y="725" type="line"/>
      <point x="-459" y="725" type="line"/>
      <point x="-527" y="685" type="line"/>
    </contour>
  </outline>
</glyph>
<glyph name="saraIi-thai.narrow" format="2">
  <anchor x="-225" y="536" name="_top"/>
  <anchor x="-225" y="772" name="top"/>
  <outline>
    <contour>
      <point x="-527" y="626" type="line"/>
      <point x="-225" y="626" type="line"/>
      <point x="-225" y="720" type="line"/>
      <point x="-459" y="720" type="line"/>
      <point x="-527" y="679" type="line"/>
    </contour>
    <contour>
      <point x="-330" y="683" type="line"/>
      <point x="-225" y="683" type="line"/>
      <point x="-225" y="795" type="line"/>
      <point x="-330" y="795" type="line"/>
    </contour>
  </outline>
</glyph>
<glyph name="saraUe-thai.narrow" format="2">
  <anchor x="-225" y="536" name="_top"/>
  <anchor x="-225" y="772" name="top"/>
  <outline>
    <contour>
      <point x="-527" y="626" type="line"/>
      <point x="-290" y="626" type="line" smooth="yes"/>
      <point x="-236" y="626"/>
      <point x="-210" y="665"/>
      <point x="-210" y="717" type="curve" smooth="yes"/>
      <point x="-210" y="771"/>
      <point x="-241" y="811"/>
      <point x="-291" y="811" type="curve" smooth="yes"/>
      <point x="-340" y="811"/>
      <point x="-369" y="774"/>
      <point x="-369" y="724" type="curve" smooth="yes"/>
      <point x="-369" y="714"/>
      <point x="-368" y="702"/>
      <point x="-364" y="689" type="curve"/>
      <point x="-341" y="720" type="line"/>
      <point x="-459" y="720" type="line"/>
      <point x="-527" y="679" type="line"/>
    </contour>
    <contour>
      <point x="-291" y="677" type="curve" smooth="yes"/>
      <point x="-314" y="677"/>
      <point x="-325" y="695"/>
      <point x="-325" y="718" type="curve" smooth="yes"/>
      <point x="-325" y="741"/>
      <point x="-313" y="758"/>
      <point x="-293" y="758" type="curve" smooth="yes"/>
      <point x="-272" y="758"/>
      <point x="-259" y="741"/>
      <point x="-259" y="717" type="curve" smooth="yes"/>
      <point x="-259" y="694"/>
      <point x="-270" y="677"/>
    </contour>
  </outline>
</glyph>
<glyph name="saraUee-thai.narrow" format="2">
  <anchor x="-225" y="536" name="_top"/>
  <anchor x="-254" y="772" name="top"/>
  <outline>
    <contour>
      <point x="-527" y="626" type="line"/>
      <point x="-225" y="626" type="line"/>
      <point x="-225" y="720" type="line"/>
      <point x="-459" y="720" type="line"/>
      <point x="-527" y="679" type="line"/>
    </contour>
    <contour>
      <point x="-397" y="704" type="line"/>
      <point x="-330" y="704" type="line"/>
      <point x="-330" y="795" type="line"/>
      <point x="-397" y="795" type="line"/>
    </contour>
    <contour>
      <point x="-291" y="704" type="line"/>
      <point x="-225" y="704" type="line"/>
      <point x="-225" y="795" type="line"/>
      <point x="-291" y="795" type="line"/>
    </contour>
  </outline>
</glyph>
<glyph name="thanthakhat-thai.narrow" format="2">
  <anchor x="-238" y="536" name="_top"/>
  <anchor x="-242" y="744" name="top"/>
  <outline>
    <contour>
      <point x="-408" y="603" type="curve"/>
      <point x="-308" y="621" type="line"/>
      <point x="-312" y="631"/>
      <point x="-314" y="642"/>
      <point x="-314" y="652" type="curve" smooth="yes"/>
      <point x="-314" y="674"/>
      <point x="-302" y="682"/>
      <point x="-282" y="682" type="curve" smooth="yes"/>
      <point x="-225" y="682" type="line"/>
      <point x="-225" y="778" type="line"/>
      <point x="-320" y="778" type="line" smooth="yes"/>
      <point x="-395" y="778"/>
      <point x="-424" y="734"/>
      <point x="-424" y="680" type="curve" smooth="yes"/>
      <point x="-424" y="651"/>
      <point x="-417" y="621"/>
    </contour>
  </outline>
</glyph>
<glyph name="thanthakhat-thai.small" format="2">
  <anchor x="-65" y="772" name="_top"/>
  <anchor x="-65" y="1033" name="top"/>
  <outline>
    <contour>
      <point x="-190" y="826" type="curve"/>
      <point x="-102" y="848" type="line"/>
      <point x="-106" y="858"/>
      <point x="-109" y="872"/>
      <point x="-109" y="882" type="curve" smooth="yes"/>
      <point x="-109" y="907"/>
      <point x="-96" y="918"/>
      <point x="-69" y="918" type="curve" smooth="yes"/>
      <point x="5" y="918" type="line"/>
      <point x="5" y="1003" type="line"/>
      <point x="-81" y="1003" type="line" smooth="yes"/>
      <point x="-182" y="1003"/>
      <point x="-209" y="956"/>
      <point x="-209" y="905" type="curve" smooth="yes"/>
      <point x="-209" y="879"/>
      <point x="-203" y="849"/>
    </contour>
  </outline>
</glyph>
<glyph name="thoThan-thai.less" format="2">
  <advance width="469"/>
  <anchor x="369" y="0" name="bottom"/>
  <anchor x="424" y="536" name="top"/>
  <outline>
    <contour>
      <point x="92" y="0" type="line"/>
      <point x="201" y="0" type="line" smooth="yes"/>
      <point x="360" y="0"/>
      <point x="424" y="99"/>
      <point x="424" y="272" type="curve" smooth="yes"/>
      <point x="424" y="385"/>
      <point x="392" y="453"/>
      <point x="346" y="480" type="curve"/>
      <point x="328" y="540"/>
      <point x="273" y="561"/>
      <point x="200" y="561" type="curve" smooth="yes"/>
      <point x="126" y="561"/>
      <point x="73" y="541"/>
      <point x="37" y="518" type="curve"/>
      <point x="37" y="400" type="line"/>
      <point x="71" y="428"/>
      <point x="115" y="449"/>
      <point x="173" y="449" type="curve" smooth="yes"/>
      <point x="249" y="449"/>
      <point x="292" y="403"/>
      <point x="292" y="275" type="curve" smooth="yes"/>
      <point x="292" y="161"/>
      <point x="262" y="107"/>
      <point x="214" y="107" type="curve" smooth="yes"/>
      <point x="209" y="107" type="line"/>
      <point x="209" y="321" type="line"/>
      <point x="50" y="321" type="line"/>
      <point x="50" y="232" type="line"/>
      <point x="92" y="232" type="line"/>
    </contour>
    <contour>
      <point x="346" y="444" type="line"/>
      <point x="422" y="467"/>
      <point x="448" y="522"/>
      <point x="448" y="584" type="curve"/>
      <point x="337" y="584" type="line"/>
      <point x="335" y="547"/>
      <point x="315" y="524"/>
      <point x="275" y="510" type="curve"/>
    </contour>
  </outline>
</glyph>
<glyph name="toPatak-thai.short" format="2">
  <advance width="525"/>
  <anchor x="466" y="-174" name="bottom"/>
  <anchor x="442" y="536" name="top"/>
  <outline>
    <contour>
      <point x="50" y="-174" type="line"/>
      <point x="152" y="-174" type="line"/>
      <point x="152" y="-168" type="line" smooth="yes"/>
      <point x="152" y="-146"/>
      <point x="158" y="-119"/>
      <point x="183" y="-119" type="curve" smooth="yes"/>
      <point x="207" y="-119"/>
      <point x="224" y="-145"/>
      <point x="233" y="-174" type="curve"/>
      <point x="263" y="-174" type="line"/>
      <point x="303" y="-122" type="line"/>
      <point x="357" y="-174" type="line"/>
      <point x="466" y="-174" type="line"/>
      <point x="466" y="353" type="line" smooth="yes"/>
      <point x="466" y="493"/>
      <point x="390" y="561"/>
      <point x="262" y="561" type="curve" smooth="yes"/>
      <point x="126" y="561"/>
      <point x="57" y="479"/>
      <point x="57" y="384" type="curve" smooth="yes"/>
      <point x="57" y="357" type="line"/>
      <point x="144" y="317" type="line"/>
      <point x="143" y="313" type="line"/>
      <point x="100" y="299"/>
      <point x="79" y="265"/>
      <point x="79" y="197" type="curve" smooth="yes"/>
      <point x="79" y="126" type="line" smooth="yes"/>
      <point x="79" y="102"/>
      <point x="72" y="90"/>
      <point x="54" y="90" type="curve" smooth="yes"/>
      <point x="47" y="90"/>
      <point x="41" y="92"/>
      <point x="34" y="95" type="curve"/>
      <point x="22" y="15" type="line"/>
      <point x="41" y="3"/>
      <point x="67" y="-5"/>
      <point x="99" y="-5" type="curve" smooth="yes"/>
      <point x="161" y="-5"/>
      <point x="206" y="26"/>
      <point x="206" y="111" type="curve" smooth="yes"/>
      <point x="206" y="192" type="line" smooth="yes"/>
      <point x="206" y="249"/>
      <point x="219" y="274"/>
      <point x="248" y="274" type="curve"/>
      <point x="256" y="336" type="line"/>
      <point x="191" y="377" type="line"/>
      <point x="193" y="417"/>
      <point x="213" y="448"/>
      <point x="260" y="448" type="curve" smooth="yes"/>
      <point x="310" y="448"/>
      <point x="335" y="415"/>
      <point x="335" y="344" type="curve" smooth="yes"/>
      <point x="335" y="-96" type="line"/>
      <point x="352" y="-91" type="line"/>
      <point x="292" y="-33" type="line"/>
      <point x="247" y="-85" type="line"/>
      <point x="227" y="-45"/>
      <point x="196" y="-22"/>
      <point x="153" y="-22" type="curve" smooth="yes"/>
      <point x="96" y="-22"/>
      <point x="50" y="-52"/>
      <point x="50" y="-141" type="curve" smooth="yes"/>
    </contour>
  </outline>
</glyph>
<glyph name="yoYing-thai.less" format="2">
  <advance width="742"/>
  <anchor x="675" y="0" name="bottom"/>
  <anchor x="683" y="536" name="top"/>
  <outline>
    <contour>
      <point x="496" y="-13" type="curve" smooth="yes"/>
      <point x="623" y="-13"/>
      <point x="683" y="56"/>
      <point x="683" y="208" type="curve" smooth="yes"/>
      <point x="683" y="548" type="line"/>
      <point x="553" y="548" type="line"/>
      <point x="553" y="197" type="line" smooth="yes"/>
      <point x="553" y="127"/>
      <point x="529" y="100"/>
      <point x="495" y="100" type="curve" smooth="yes"/>
      <point x="460" y="100"/>
      <point x="436" y="127"/>
      <point x="436" y="197" type="curve" smooth="yes"/>
      <point x="436" y="364" type="line" smooth="yes"/>
      <point x="436" y="499"/>
      <point x="359" y="561"/>
      <point x="243" y="561" type="curve" smooth="yes"/>
      <point x="116" y="561"/>
      <point x="46" y="483"/>
      <point x="46" y="384" type="curve" smooth="yes"/>
      <point x="46" y="357" type="line"/>
      <point x="132" y="317" type="line"/>
      <point x="131" y="313" type="line"/>
      <point x="81" y="295"/>
      <point x="53" y="263"/>
      <point x="53" y="184" type="curve" smooth="yes"/>
      <point x="53" y="114" type="line" smooth="yes"/>
      <point x="53" y="28"/>
      <point x="97" y="-10"/>
      <point x="171" y="-10" type="curve" smooth="yes"/>
      <point x="202" y="-10"/>
      <point x="230" y="-4"/>
      <point x="250" y="9" type="curve"/>
      <point x="238" y="94" type="line"/>
      <point x="230" y="90"/>
      <point x="220" y="88"/>
      <point x="211" y="88" type="curve" smooth="yes"/>
      <point x="189" y="88"/>
      <point x="179" y="100"/>
      <point x="179" y="129" type="curve" smooth="yes"/>
      <point x="179" y="195" type="line" smooth="yes"/>
      <point x="179" y="252"/>
      <point x="198" y="273"/>
      <point x="237" y="274" type="curve"/>
      <point x="245" y="336" type="line"/>
      <point x="180" y="380" type="line"/>
      <point x="183" y="426"/>
      <point x="205" y="450"/>
      <point x="243" y="450" type="curve" smooth="yes"/>
      <point x="283" y="450"/>
      <point x="309" y="425"/>
      <point x="309" y="351" type="curve" smooth="yes"/>
      <point x="309" y="208" type="line" smooth="yes"/>
      <point x="309" y="56"/>
      <point x="368" y="-13"/>
    </contour>
  </outline>
</glyph>
